<svg width="42" height="48" viewBox="0 0 42 48" fill="none" xmlns="http://www.w3.org/2000/svg">
<path d="M20.955 8.99296H21.015C22.746 8.99304 24.44 9.49419 25.8924 10.4359C27.3448 11.3776 28.4936 12.7197 29.2 14.3C29.9063 15.888 30.1377 17.6466 29.8662 19.3633C29.5947 21.08 28.8319 22.6814 27.67 23.974L28.478 23.981C29.2393 23.9812 29.9881 23.7869 30.6532 23.4164C31.3182 23.0459 31.8776 22.5115 32.278 21.864C32.726 20.6194 32.9626 19.3086 32.978 17.986C32.9784 16.4111 32.6683 14.8515 32.0656 13.3966C31.4628 11.9416 30.5791 10.6197 29.4651 9.50652C28.351 8.39332 27.0285 7.51064 25.5731 6.90895C24.1176 6.30727 22.5579 5.99838 20.983 5.99996C19.4082 5.99904 17.8486 6.30854 16.3935 6.91077C14.9384 7.513 13.6163 8.39614 12.5027 9.5097C11.3892 10.6233 10.506 11.9454 9.90381 13.4005C9.30158 14.8556 8.99208 16.4152 8.993 17.99C8.999 19.7841 9.40951 21.5539 10.194 23.1675C10.9784 24.7811 12.1167 26.197 13.524 27.31C13.5044 27.202 13.4927 27.0927 13.489 26.983C13.4945 25.9265 13.7824 24.8907 14.323 23.983C13.1505 22.695 12.3779 21.0939 12.0994 19.3747C11.8208 17.6554 12.0482 15.8922 12.754 14.3C13.4626 12.7179 14.614 11.3749 16.0694 10.4332C17.5247 9.49142 19.2216 8.9912 20.955 8.99296ZM4.5 20.983C4.69728 20.984 4.89281 20.9459 5.07528 20.8709C5.25774 20.7959 5.42352 20.6855 5.56302 20.546C5.70252 20.4065 5.81297 20.2407 5.88798 20.0582C5.96299 19.8758 6.00106 19.6802 6 19.483V17.983C6.0045 14.0106 7.58451 10.2022 10.3934 7.39335C13.2023 4.58446 17.0106 3.00446 20.983 2.99996C24.9567 3.00314 28.7669 4.58297 31.5769 7.39265C34.387 10.2023 35.9673 14.0122 35.971 17.986V19.486C35.9694 21.473 35.1794 23.3782 33.7743 24.7833C32.3693 26.1883 30.464 26.9784 28.477 26.98H25.477C25.477 26.1843 25.1609 25.4213 24.5983 24.8586C24.0357 24.296 23.2727 23.98 22.477 23.98H19.477C18.6814 23.98 17.9183 24.296 17.3557 24.8586C16.7931 25.4213 16.477 26.1843 16.477 26.98C16.477 27.7756 16.7931 28.5387 17.3557 29.1013C17.9183 29.6639 18.6814 29.98 19.477 29.98H28.47C31.2539 29.9797 33.9238 28.8739 35.8926 26.9056C37.8614 24.9374 38.9679 22.2679 38.969 19.484V17.984C38.9648 13.2153 37.0684 8.64312 33.6962 5.27132C30.3241 1.89953 25.7517 0.00366985 20.983 -3.8147e-05C16.215 0.00604985 11.644 1.90305 8.27276 5.27484C4.90153 8.64664 3.00529 13.2179 3 17.986V19.486C2.99947 19.683 3.03793 19.8781 3.11316 20.0602C3.18839 20.2422 3.29891 20.4076 3.43834 20.5467C3.57777 20.6859 3.74337 20.7961 3.92558 20.871C4.10779 20.9458 4.30301 20.9839 4.5 20.983ZM29.483 32.973H12.487C9.1754 32.9735 5.9996 34.2893 3.65794 36.6309C1.31629 38.9726 0.00053 42.1484 0 45.46C0 46.123 0.26339 46.7589 0.732231 47.2277C1.20107 47.6966 1.83696 47.96 2.5 47.96H39.465C40.128 47.96 40.7639 47.6966 41.2328 47.2277C41.7016 46.7589 41.965 46.123 41.965 45.46C41.9645 42.1485 40.6488 38.9729 38.3074 36.6313C35.966 34.2896 32.7904 32.9738 29.479 32.973H29.483ZM3.014 44.963C3.14372 42.5358 4.19887 40.2506 5.96231 38.5777C7.72575 36.9049 10.0633 35.9716 12.494 35.97H29.474C31.9047 35.9716 34.2422 36.9049 36.0057 38.5777C37.7691 40.2506 38.8243 42.5358 38.954 44.963H3.011H3.014Z" fill="#E6EAF2"/>
</svg>
