<svg width="25" height="25" viewBox="0 0 25 25" fill="none" xmlns="http://www.w3.org/2000/svg">
<path d="M21.875 0.25C22.5312 0.25 23.1875 0.578126 23.6797 1.07031C24.1719 1.5625 24.5 2.21875 24.5 2.875V22.125C24.5 22.8359 24.1719 23.4922 23.6797 23.9844C23.1875 24.4766 22.5312 24.75 21.875 24.75H14.3281V16.4375H17.5L18.1016 12.5H14.3281V9.98438C14.3281 8.89062 14.875 7.85156 16.5703 7.85156H18.2656V4.51562C18.2656 4.51562 16.7344 4.24219 15.2031 4.24219C12.1406 4.24219 10.1172 6.15625 10.1172 9.54688V12.5H6.67188V16.4375H10.1172V24.75H2.625C1.91406 24.75 1.25781 24.4766 0.765625 23.9844C0.273438 23.4922 0 22.8359 0 22.125V2.875C0 2.21875 0.273438 1.5625 0.765625 1.07031C1.25781 0.578126 1.91406 0.25 2.625 0.25H21.875Z" fill="#E6EAF2"/>
</svg>
