<svg width="214" height="38" viewBox="0 0 214 38" fill="none" xmlns="http://www.w3.org/2000/svg">
<path d="M6.43801 32.8292H11.9452C11.9452 32.8292 19.227 26.7821 36.6527 23.8971C35.7905 26.9194 34.1786 29.675 31.9669 31.9079C29.7551 34.1409 27.015 35.7789 24.001 36.6699C20.987 37.5609 17.7968 37.676 14.7264 37.0046C11.656 36.3332 8.80499 34.8969 6.43801 32.8292ZM1.72627e-05 18.7176C-0.00302474 13.7566 1.96475 8.99754 5.47049 5.48733C8.97622 1.97711 13.7328 0.00325767 18.6938 -3.43323e-05C19.0378 -3.43323e-05 19.3704 0.0324551 19.7067 0.0515671C13.3757 9.28871 7.87168 19.0662 3.25867 29.2705C1.13102 26.163 -0.00510774 22.4837 1.72627e-05 18.7176ZM28.0588 2.53426C30.8968 4.17646 33.2529 6.53626 34.8907 9.37682C36.5284 12.2174 37.3902 15.4388 37.3895 18.7176C37.3895 19.1171 37.3551 19.5003 37.335 19.893C33.9225 20.4072 23.4174 22.2515 14.8837 26.525C18.6073 18.1789 23.014 10.1547 28.0588 2.53426Z" fill="#FF0F00"/>
<path d="M49.5458 23.8178H54.4472V26.1829H46.5624V11.3087H49.5458V23.8178ZM67.3203 20.0249C67.3232 20.4088 67.2948 20.7924 67.2352 21.1716H58.605C58.6325 21.9313 58.9535 22.6507 59.5005 23.1784C60.0283 23.6623 60.7236 23.922 61.4394 23.9028C61.9318 23.9323 62.4216 23.8116 62.844 23.5567C63.2663 23.3018 63.6013 22.9246 63.8046 22.4751H67.0221C66.6908 23.5976 66.0023 24.5813 65.0612 25.277C64.0304 26.0292 62.7779 26.4153 61.5025 26.374C60.4348 26.3911 59.381 26.1303 58.4445 25.6172C57.5501 25.1208 56.8176 24.3773 56.3345 23.4756C55.8153 22.4915 55.5549 21.3915 55.5777 20.2791C55.5536 19.1611 55.8102 18.0548 56.324 17.0615C56.7971 16.1626 57.5229 15.4218 58.412 14.9305C59.3608 14.4201 60.4253 14.1634 61.5025 14.1851C62.5526 14.1678 63.5899 14.417 64.5175 14.9095C65.3919 15.3792 66.1103 16.0939 66.5845 16.966C67.0869 17.9057 67.3396 18.9586 67.3184 20.024L67.3203 20.0249ZM64.2308 19.1725C64.237 18.8229 64.1657 18.4763 64.0219 18.1575C63.8782 17.8388 63.6656 17.5559 63.3994 17.3291C62.8463 16.8625 62.1408 16.6158 61.4175 16.6363C60.7338 16.6158 60.0677 16.8548 59.553 17.3052C59.0278 17.7934 58.6983 18.4562 58.6261 19.1696L64.2308 19.1725ZM68.727 20.238C68.7056 19.1375 68.9505 18.0481 69.4408 17.0625C69.8749 16.1847 70.5467 15.4464 71.3797 14.9315C72.2051 14.4319 73.1539 14.1737 74.1185 14.1861C74.9214 14.1678 75.7161 14.3508 76.4302 14.7184C77.0525 15.0402 77.5949 15.4973 78.0174 16.0562V14.3724H81.0219V26.1781H78.0174V24.4523C77.6059 25.0307 77.0616 25.5019 76.4302 25.8265C75.7099 26.1997 74.9076 26.3867 74.0965 26.3702C73.1364 26.3806 72.1935 26.1153 71.3797 25.6057C70.547 25.0767 69.8761 24.3285 69.4408 23.4431C68.9493 22.447 68.7038 21.3476 68.725 20.2371L68.727 20.238ZM78.0184 20.281C78.0366 19.6335 77.89 18.9919 77.5922 18.4166C77.3293 17.9192 76.9319 17.5057 76.4455 17.223C75.973 16.9488 75.436 16.8053 74.8897 16.8073C74.3512 16.8032 73.8213 16.9431 73.355 17.2125C72.8739 17.4951 72.4795 17.9043 72.2149 18.3956C71.9121 18.9618 71.7616 19.597 71.7782 20.239C71.7635 20.8874 71.9137 21.5289 72.2149 22.1034C72.4792 22.608 72.8756 23.0315 73.3617 23.3285C73.8206 23.6078 74.3477 23.7553 74.8849 23.7547C75.4312 23.7568 75.9682 23.6133 76.4407 23.339C76.9271 23.0564 77.3245 22.6428 77.5874 22.1454C77.8863 21.5701 78.034 20.9282 78.0165 20.2801L78.0184 20.281ZM88.4604 26.3759C87.5663 26.3908 86.6794 26.2129 85.8602 25.8542C85.142 25.5446 84.5148 25.0568 84.0378 24.437C83.5996 23.865 83.3435 23.1745 83.303 22.455H86.3074C86.335 22.6793 86.4086 22.8954 86.5237 23.0898C86.6388 23.2842 86.7929 23.4527 86.9763 23.5846C87.3992 23.8931 87.9134 24.0506 88.4365 24.0318C88.9052 24.0588 89.3707 23.9396 89.7687 23.6907C89.9155 23.5972 90.0363 23.4681 90.1199 23.3154C90.2034 23.1627 90.247 22.9913 90.2465 22.8172C90.2469 22.6315 90.1912 22.45 90.0867 22.2966C89.9821 22.1431 89.8336 22.0248 89.6607 21.9572C89.0592 21.6924 88.4352 21.482 87.7963 21.3284C87.0606 21.1602 86.3379 20.9395 85.6337 20.668C85.0738 20.4415 84.5769 20.0832 84.185 19.6236C83.757 19.087 83.5407 18.412 83.5772 17.7267C83.5732 17.0856 83.7708 16.4595 84.142 15.9368C84.5533 15.369 85.114 14.9264 85.7618 14.6582C86.5479 14.3291 87.3944 14.1693 88.2464 14.189C89.4583 14.1247 90.653 14.4977 91.613 15.2401C92.0294 15.5916 92.3677 16.0262 92.6062 16.5162C92.8446 17.0061 92.978 17.5405 92.9977 18.085H90.1423C90.1289 17.8678 90.0698 17.6558 89.9689 17.4629C89.8679 17.2701 89.7274 17.1008 89.5565 16.966C89.1527 16.6713 88.6597 16.5245 88.1604 16.5503C87.7259 16.5245 87.2935 16.6282 86.9181 16.8484C86.7799 16.9377 86.6671 17.0611 86.5905 17.2068C86.514 17.3524 86.4764 17.5154 86.4814 17.6798C86.4801 17.8729 86.5361 18.0619 86.6422 18.2232C86.7483 18.3844 86.8999 18.5106 87.0777 18.5857C87.6717 18.8602 88.2931 19.071 88.9316 19.2145C89.6495 19.3849 90.3546 19.6056 91.0416 19.8749C91.5989 20.1039 92.0924 20.4646 92.4797 20.9261C92.9054 21.461 93.1281 22.1291 93.1086 22.8124C93.1169 23.4675 92.9193 24.1086 92.5438 24.6453C92.1338 25.2119 91.5724 25.6514 90.924 25.9134C90.1424 26.2355 89.3027 26.3927 88.4576 26.375L88.4604 26.3759ZM97.0696 12.9715C96.8289 12.9791 96.5891 12.9387 96.3642 12.8527C96.1393 12.7668 95.9337 12.6369 95.7594 12.4708C95.5903 12.3118 95.4565 12.119 95.3666 11.905C95.2767 11.691 95.2328 11.4605 95.2377 11.2285C95.2328 10.9964 95.2767 10.7659 95.3666 10.5519C95.4565 10.3379 95.5903 10.1451 95.7594 9.98615C95.9327 9.81849 96.1376 9.68703 96.3622 9.59941C96.5868 9.5118 96.8267 9.4698 97.0677 9.47586C97.3084 9.46828 97.5481 9.50864 97.7731 9.59461C97.998 9.68058 98.2035 9.81043 98.3778 9.9766C98.5469 10.1356 98.6808 10.3283 98.7707 10.5423C98.8606 10.7563 98.9045 10.9868 98.8996 11.2189C98.9045 11.451 98.8606 11.6815 98.7707 11.8955C98.6808 12.1095 98.5469 12.3022 98.3778 12.4612C98.2042 12.6289 97.999 12.7603 97.774 12.8478C97.5491 12.9353 97.309 12.977 97.0677 12.9705L97.0696 12.9715ZM98.5403 14.3782V26.1839H95.5568V14.3772L98.5403 14.3782ZM108.023 14.2081C108.652 14.1819 109.281 14.2869 109.868 14.5162C110.454 14.7455 110.987 15.0942 111.433 15.5402C111.885 16.0428 112.233 16.6304 112.456 17.2688C112.679 17.9072 112.773 18.5835 112.732 19.2585V26.1839H109.749V19.6627C109.801 18.8783 109.549 18.1038 109.045 17.5002C108.798 17.2431 108.499 17.0421 108.168 16.9107C107.836 16.7793 107.481 16.7206 107.125 16.7385C106.765 16.7199 106.405 16.7777 106.069 16.9082C105.733 17.0386 105.428 17.2387 105.175 17.4954C104.665 18.0961 104.409 18.8717 104.461 19.658V26.1791H101.478V14.3772H104.461V15.8479C104.866 15.331 105.388 14.9182 105.985 14.6438C106.622 14.3482 107.318 14.199 108.021 14.2071L108.023 14.2081ZM120.191 14.187C120.996 14.1696 121.793 14.3487 122.514 14.7088C123.143 15.0234 123.684 15.4882 124.091 16.062V14.3782H127.095V26.2689C127.113 27.2844 126.887 28.2893 126.435 29.1988C125.991 30.0619 125.301 30.7739 124.453 31.2448C123.472 31.7737 122.37 32.0348 121.256 32.0017C119.792 32.0639 118.346 31.6531 117.133 30.8301C116.613 30.4631 116.18 29.9866 115.865 29.4341C115.55 28.8816 115.36 28.2666 115.308 27.6326H118.271C118.43 28.1763 118.792 28.6379 119.283 28.9217C119.854 29.2548 120.508 29.4203 121.169 29.3995C121.555 29.4158 121.94 29.3555 122.302 29.222C122.664 29.0884 122.996 28.8844 123.279 28.6216C123.568 28.3056 123.789 27.9335 123.929 27.5284C124.068 27.1234 124.122 26.694 124.089 26.267V24.4341C123.675 25.0134 123.131 25.4871 122.5 25.8169C121.789 26.1953 120.993 26.3861 120.188 26.3712C119.225 26.3806 118.279 26.1154 117.461 25.6067C116.623 25.0802 115.948 24.3315 115.511 23.4441C115.02 22.4475 114.775 21.3478 114.797 20.2371C114.776 19.1365 115.021 18.0471 115.511 17.0615C115.945 16.1838 116.617 15.4454 117.45 14.9305C118.275 14.4309 119.224 14.1727 120.189 14.1851L120.191 14.187ZM124.091 20.282C124.109 19.6344 123.962 18.9929 123.664 18.4176C123.401 17.9202 123.004 17.5067 122.518 17.224C122.045 16.9497 121.508 16.8063 120.962 16.8083C120.423 16.8042 119.894 16.9441 119.427 17.2135C118.946 17.4961 118.552 17.9053 118.287 18.3965C117.984 18.9628 117.834 19.598 117.85 20.2399C117.835 20.8884 117.986 21.53 118.287 22.1043C118.551 22.609 118.948 23.0325 119.434 23.3294C119.893 23.6088 120.42 23.7563 120.957 23.7556C121.503 23.7577 122.04 23.6142 122.513 23.3399C122.999 23.0573 123.397 22.6438 123.66 22.1464C123.959 21.5708 124.106 20.9285 124.089 20.2801L124.091 20.282Z" fill="white"/>
<path d="M138.686 26.3321C137.344 26.3448 136.021 26.0069 134.85 25.3516C133.699 24.7119 132.741 23.7733 132.079 22.6348C131.387 21.4413 131.034 20.0823 131.056 18.7034C131.036 17.3313 131.389 15.9795 132.079 14.793C132.741 13.6545 133.699 12.7159 134.85 12.0762C136.021 11.4209 137.344 11.0829 138.686 11.0957C140.032 11.0803 141.358 11.4184 142.532 12.0762C143.677 12.7168 144.627 13.6557 145.281 14.793C145.964 15.9817 146.314 17.3326 146.293 18.7034C146.316 20.081 145.966 21.4391 145.281 22.6348C144.625 23.7742 143.671 24.7134 142.522 25.3516C141.35 26.0069 140.028 26.3448 138.686 26.3321ZM138.686 23.6688C139.515 23.6857 140.333 23.4756 141.051 23.061C141.74 22.6484 142.295 22.0454 142.649 21.3246C143.046 20.509 143.242 19.6103 143.222 18.7034C143.243 17.7997 143.046 16.9043 142.649 16.0926C142.295 15.3761 141.74 14.7783 141.051 14.3725C140.33 13.9649 139.513 13.7589 138.686 13.7762C137.855 13.7599 137.035 13.9658 136.31 14.3725C135.617 14.7755 135.057 15.3738 134.701 16.0926C134.303 16.9043 134.107 17.7997 134.128 18.7034C134.107 19.6103 134.304 20.509 134.701 21.3246C135.057 22.0476 135.616 22.6511 136.31 23.061C137.033 23.4747 137.854 23.6847 138.686 23.6688ZM151.491 16.0821C151.91 15.5141 152.455 15.0517 153.084 14.7318C153.797 14.3603 154.592 14.1733 155.396 14.1881C156.36 14.1756 157.309 14.4339 158.135 14.9335C158.966 15.4461 159.637 16.1805 160.073 17.054C160.566 18.0425 160.811 19.1358 160.787 20.24C160.809 21.3507 160.564 22.4505 160.073 23.4471C159.638 24.3324 158.967 25.0806 158.135 25.6096C157.314 26.1213 156.363 26.3866 155.396 26.3741C154.599 26.3914 153.81 26.2084 153.102 25.8418C152.476 25.5166 151.927 25.0603 151.493 24.504V31.8135H148.51V14.3773H151.493L151.491 16.0821ZM157.735 20.2371C157.752 19.5952 157.601 18.96 157.298 18.3938C157.033 17.9009 156.636 17.4913 156.152 17.2107C155.681 16.9421 155.148 16.8023 154.606 16.8055C154.07 16.8046 153.544 16.9482 153.083 17.2212C152.598 17.51 152.201 17.9265 151.936 18.4253C151.634 18.9956 151.484 19.634 151.5 20.2792C151.484 20.9244 151.634 21.5628 151.936 22.1331C152.201 22.6319 152.598 23.0484 153.083 23.3372C153.544 23.6102 154.07 23.7538 154.606 23.7529C155.151 23.7555 155.685 23.608 156.152 23.3266C156.636 23.0318 157.032 22.6123 157.298 22.1121C157.603 21.5349 157.754 20.8894 157.737 20.2371H157.735ZM166.431 16.8275V22.5383C166.417 22.6936 166.435 22.8503 166.484 22.9983C166.534 23.1464 166.613 23.2826 166.718 23.3983C166.998 23.6031 167.343 23.698 167.688 23.6649H169.073V26.1792H167.199C164.684 26.1792 163.427 24.9572 163.427 22.5134V16.8237H162.02V14.3735H163.427V11.4541H166.431V14.3735H169.073V16.8237L166.431 16.8275ZM172.738 12.9706C172.498 12.9777 172.259 12.9371 172.035 12.8511C171.811 12.7652 171.606 12.6356 171.432 12.4699C171.263 12.3109 171.129 12.1182 171.039 11.9042C170.949 11.6902 170.905 11.4596 170.91 11.2276C170.905 10.9955 170.949 10.765 171.039 10.551C171.129 10.337 171.263 10.1443 171.432 9.98528C171.605 9.81791 171.81 9.68669 172.034 9.59924C172.259 9.5118 172.498 9.46988 172.739 9.47594C172.98 9.46836 173.22 9.50872 173.445 9.59469C173.67 9.68066 173.875 9.81051 174.049 9.97668C174.218 10.1357 174.352 10.3284 174.442 10.5424C174.532 10.7564 174.576 10.9869 174.571 11.219C174.576 11.451 174.532 11.6816 174.442 11.8956C174.352 12.1096 174.218 12.3023 174.049 12.4613C173.876 12.629 173.671 12.7604 173.446 12.8479C173.221 12.9353 172.98 12.9771 172.738 12.9706ZM174.209 14.3773V26.183H171.226V14.3773H174.209ZM182.392 26.3751C181.321 26.3913 180.264 26.1306 179.323 25.6182C178.421 25.1212 177.679 24.3786 177.182 23.4767C176.649 22.4969 176.381 21.3951 176.404 20.2801C176.381 19.1625 176.657 18.059 177.203 17.0836C177.716 16.1793 178.473 15.4373 179.387 14.9421C180.336 14.4313 181.4 14.1708 182.477 14.1852C183.554 14.1708 184.618 14.4313 185.566 14.9421C186.481 15.4373 187.238 16.1793 187.751 17.0836C188.297 18.059 188.573 19.1625 188.55 20.2801C188.572 21.4005 188.289 22.5058 187.729 23.4767C187.202 24.3811 186.435 25.1222 185.513 25.6182C184.553 26.1297 183.479 26.39 182.392 26.3751ZM182.392 23.7748C182.925 23.7763 183.45 23.6404 183.915 23.3802C184.402 23.1055 184.799 22.6942 185.055 22.1971C185.355 21.6034 185.502 20.944 185.481 20.2792C185.512 19.8107 185.45 19.3407 185.298 18.8964C185.147 18.452 184.909 18.0421 184.597 17.6904C184.32 17.3975 183.984 17.1657 183.612 17.0098C183.239 16.8538 182.839 16.7771 182.435 16.7845C182.034 16.7757 181.636 16.8519 181.267 17.0081C180.898 17.1642 180.566 17.3968 180.293 17.6904C179.679 18.4075 179.37 19.337 179.433 20.2792C179.371 21.2182 179.673 22.1451 180.275 22.8679C180.542 23.1621 180.87 23.3954 181.235 23.5519C181.601 23.7083 181.995 23.7844 182.392 23.7748ZM197.288 14.2062C197.918 14.1801 198.546 14.285 199.133 14.5143C199.72 14.7436 200.253 15.0924 200.698 15.5384C201.15 16.041 201.498 16.6286 201.721 17.267C201.944 17.9053 202.038 18.5817 201.997 19.2567V26.182H199.014V19.6609C199.066 18.8764 198.814 18.102 198.311 17.4983C198.063 17.2425 197.764 17.0426 197.434 16.9121C197.103 16.7815 196.748 16.7234 196.393 16.7415C196.033 16.7228 195.673 16.7807 195.337 16.9111C195.001 17.0416 194.696 17.2417 194.443 17.4983C193.933 18.0991 193.677 18.8747 193.729 19.6609V26.182H190.746V14.3773H193.729V15.848C194.134 15.331 194.656 14.9182 195.253 14.6439C195.89 14.3483 196.586 14.1991 197.289 14.2072L197.288 14.2062ZM209.35 26.3741C208.456 26.389 207.569 26.211 206.75 25.8523C206.031 25.5428 205.404 25.055 204.927 24.4352C204.489 23.8632 204.233 23.1726 204.192 22.4532H207.197C207.224 22.6775 207.298 22.8936 207.413 23.088C207.528 23.2824 207.682 23.4508 207.866 23.5828C208.289 23.8912 208.803 24.0487 209.326 24.03C209.795 24.0569 210.26 23.9377 210.658 23.6888C210.805 23.5953 210.926 23.4662 211.009 23.3135C211.093 23.1608 211.136 22.9895 211.136 22.8154C211.136 22.6297 211.081 22.4482 210.976 22.2947C210.872 22.1412 210.723 22.0229 210.55 21.9553C209.949 21.6906 209.325 21.4802 208.686 21.3265C207.95 21.1583 207.227 20.9377 206.523 20.6662C205.963 20.4396 205.466 20.0813 205.074 19.6217C204.646 19.0852 204.43 18.4102 204.467 17.7248C204.463 17.0838 204.66 16.4576 205.031 15.935C205.443 15.3672 206.003 14.9246 206.651 14.6563C207.437 14.3273 208.284 14.1674 209.136 14.1871C210.348 14.1229 211.542 14.4959 212.502 15.2383C212.919 15.5897 213.257 16.0243 213.496 16.5142C213.735 17.0041 213.868 17.5386 213.888 18.0832H211.033C211.019 17.8659 210.96 17.654 210.859 17.4611C210.758 17.2683 210.618 17.0989 210.447 16.9641C210.043 16.6694 209.55 16.5227 209.051 16.5485C208.616 16.5226 208.184 16.6264 207.808 16.8466C207.67 16.9359 207.557 17.0593 207.481 17.205C207.404 17.3506 207.367 17.5135 207.372 17.678C207.37 17.871 207.426 18.0601 207.533 18.2213C207.639 18.3826 207.79 18.5087 207.968 18.5839C208.562 18.8584 209.183 19.0691 209.822 19.2127C210.54 19.3831 211.245 19.6038 211.932 19.873C212.489 20.102 212.983 20.4627 213.37 20.9242C213.796 21.4592 214.018 22.1273 213.999 22.8106C214.007 23.4657 213.81 24.1068 213.434 24.6435C213.024 25.21 212.463 25.6495 211.814 25.9116C211.034 26.234 210.195 26.3917 209.351 26.3751L209.35 26.3741Z" fill="white"/>
</svg>
