<svg width="103" height="21" viewBox="0 0 103 21" fill="none" xmlns="http://www.w3.org/2000/svg">
<path d="M31.3381 5.69478L32.9191 8.82478L33.0451 9.15078L33.3611 9.21578L36.8381 9.73778L34.3721 12.0848L34.1191 12.3458L34.1821 12.6718L34.8141 16.1278L31.6531 14.4978L31.3371 14.3678L31.0841 14.4978L27.9231 16.1278L28.4921 12.7378L28.5551 12.4118L28.3031 12.0848L25.7741 9.67278L29.2511 9.15078L29.5671 9.08578L29.7571 8.82478L31.3381 5.69478ZM31.2741 4.26078L29.1881 8.56078L24.3831 9.28078L27.8601 12.6058L27.0381 17.3008L31.3381 15.0838L35.6381 17.3008L34.8161 12.6068L38.2931 9.21678L33.4831 8.56078L31.2741 4.26078Z" fill="#FB9A00"/>
<path d="M35.6371 17.3008L31.3371 15.0838L27.0371 17.3008L27.8591 12.6068L24.3831 9.28078L29.1881 8.56078L31.2741 4.26078L33.4831 8.56078L38.2881 9.21278L34.8151 12.5408L35.6371 17.3008Z" fill="#FB9A00"/>
<path d="M63.303 5.69478L64.884 8.82478L65.01 9.15078L65.326 9.21578L68.803 9.73778L66.337 12.0848L66.084 12.3458L66.147 12.6718L66.779 16.1278L63.618 14.4978L63.302 14.3678L63.049 14.4978L59.888 16.1278L60.457 12.7378L60.52 12.4118L60.268 12.0848L57.739 9.67278L61.216 9.15078L61.532 9.08578L61.722 8.82478L63.303 5.69478ZM63.239 4.26078L61.153 8.56078L56.348 9.28078L59.825 12.6058L59.003 17.3008L63.303 15.0838L67.603 17.3008L66.781 12.6068L70.258 9.21678L65.448 8.56078L63.239 4.26078Z" fill="#FB9A00"/>
<path d="M67.602 17.3008L63.302 15.0838L59.002 17.3008L59.824 12.6068L56.348 9.28078L61.153 8.56078L63.239 4.26078L65.448 8.56078L70.253 9.21278L66.78 12.5408L67.602 17.3008Z" fill="#FB9A00"/>
<path d="M47.32 5.69478L48.901 8.82478L49.027 9.15078L49.343 9.21578L52.82 9.73778L50.354 12.0848L50.101 12.3458L50.164 12.6718L50.796 16.1278L47.635 14.4978L47.319 14.3678L47.066 14.4978L43.905 16.1278L44.474 12.7378L44.537 12.4118L44.285 12.0848L41.756 9.67278L45.233 9.15078L45.549 9.08578L45.739 8.82478L47.32 5.69478ZM47.256 4.26078L45.17 8.56078L40.365 9.28078L43.842 12.6058L43.02 17.3008L47.32 15.0838L51.62 17.3008L50.798 12.6068L54.275 9.21678L49.465 8.56078L47.256 4.26078Z" fill="#FB9A00"/>
<path d="M51.619 17.3008L47.319 15.0838L43.019 17.3008L43.841 12.6068L40.365 9.28078L45.17 8.56078L47.256 4.26078L49.465 8.56078L54.27 9.21278L50.797 12.5408L51.619 17.3008Z" fill="#FB9A00"/>
<path d="M79.285 5.69478L80.866 8.82478L80.992 9.15078L81.308 9.21578L84.785 9.73778L82.319 12.0848L82.066 12.3458L82.129 12.6718L82.761 16.1278L79.6 14.4978L79.284 14.3678L79.031 14.4978L75.87 16.1278L76.439 12.7378L76.502 12.4118L76.25 12.0848L73.721 9.67278L77.198 9.15078L77.514 9.08578L77.704 8.82478L79.285 5.69478ZM79.221 4.26078L77.135 8.56078L72.33 9.28078L75.807 12.6058L74.985 17.3008L79.285 15.0838L83.585 17.3008L82.763 12.6068L86.24 9.21678L81.43 8.56078L79.221 4.26078Z" fill="#FB9A00"/>
<path d="M83.584 17.3008L79.284 15.0838L74.984 17.3008L75.806 12.6068L72.33 9.28078L77.135 8.56078L79.221 4.26078L81.43 8.56078L86.235 9.21278L82.762 12.5408L83.584 17.3008Z" fill="#FB9A00"/>
<path d="M95.268 5.69478L96.849 8.82478L96.975 9.15078L97.291 9.21578L100.768 9.73778L98.302 12.0848L98.049 12.3458L98.112 12.6718L98.744 16.1278L95.583 14.4978L95.267 14.3678L95.014 14.4978L91.853 16.1278L92.422 12.7378L92.485 12.4118L92.233 12.0848L89.704 9.67278L93.181 9.15078L93.497 9.08578L93.687 8.82478L95.268 5.69478ZM95.204 4.26078L93.118 8.56078L88.313 9.28078L91.79 12.6058L90.968 17.3008L95.268 15.0838L99.568 17.3008L98.746 12.6068L102.223 9.21678L97.413 8.56078L95.204 4.26078Z" fill="#FB9A00"/>
<path d="M99.567 17.3008L95.267 15.0838L90.967 17.3008L91.789 12.6068L88.313 9.28078L93.118 8.56078L95.204 4.26078L97.413 8.56078L102.218 9.21278L98.745 12.5408L99.567 17.3008Z" fill="#FB9A00"/>
<path d="M20.172 10.7939C20.171 10.1506 20.1171 9.5084 20.011 8.87388H10.452V12.6889H15.925C15.8047 13.3031 15.5632 13.8872 15.2146 14.4071C14.8661 14.927 14.4175 15.3722 13.895 15.7169V18.2549H17.16C18.1551 17.2904 18.9372 16.1283 19.456 14.8433C19.9748 13.5583 20.2187 12.1789 20.172 10.7939Z" fill="#4285F4"/>
<path d="M10.4559 20.7168C12.9215 20.7808 15.3184 19.9 17.1559 18.2548L13.8909 15.7168C12.8666 16.3795 11.6677 16.7211 10.4479 16.6978C9.17876 16.6819 7.94661 16.268 6.92521 15.5145C5.90381 14.7609 5.14471 13.7058 4.75494 12.4978H1.38794V15.1118C2.22965 16.7962 3.52389 18.2128 5.12556 19.2028C6.72723 20.1928 8.573 20.717 10.4559 20.7168Z" fill="#34A853"/>
<path d="M4.755 12.7178C4.54038 12.0946 4.43187 11.4399 4.434 10.7808C4.43605 10.1221 4.54445 9.46797 4.755 8.84379V6.22979H1.388C0.670662 7.63958 0.296826 9.19899 0.296997 10.7808C0.296826 12.3626 0.670662 13.922 1.388 15.3318L4.755 12.7178Z" fill="#FBBC05"/>
<path d="M10.456 4.86369C11.9027 4.84049 13.3004 5.38758 14.347 6.38669L17.24 3.49369C15.4081 1.76389 12.9753 0.814295 10.456 0.845692C8.57494 0.846507 6.73123 1.37075 5.13116 2.35976C3.53109 3.34876 2.23779 4.76351 1.396 6.44569L4.763 9.05969C5.15345 7.85249 5.91285 6.79823 6.93419 6.04546C7.95552 5.29268 9.18732 4.87935 10.456 4.86369Z" fill="#EA4335"/>
</svg>
