<svg width="25" height="25" viewBox="0 0 25 25" fill="none" xmlns="http://www.w3.org/2000/svg">
<path d="M5.46875 25H0.382812V8.64844H5.46875V25ZM2.89844 6.46094C1.3125 6.46094 0 5.09375 0 3.45312C0 2.41406 0.546875 1.42969 1.42188 0.9375C2.35156 0.390625 3.5 0.390625 4.375 0.9375C5.30469 1.42969 5.85156 2.41406 5.85156 3.45312C5.85156 5.09375 4.53906 6.46094 2.89844 6.46094ZM24.4453 25H19.4141V17.0703C19.4141 15.1562 19.3594 12.75 16.7344 12.75C14.1094 12.75 13.7266 14.7734 13.7266 16.9062V25H8.64062V8.64844H13.5078V10.8906H13.5625C14.2734 9.63281 15.9141 8.26562 18.375 8.26562C23.5156 8.26562 24.5 11.6562 24.5 16.0312V25H24.4453Z" fill="#E6EAF2"/>
</svg>
