<svg width="291" height="51" viewBox="0 0 291 51" fill="none" xmlns="http://www.w3.org/2000/svg">
<path d="M8.75402 44.6421H16.241C16.241 44.6421 26.141 36.4191 49.841 32.4961C48.6687 36.6061 46.4769 40.3533 43.4693 43.3898C40.4616 46.4264 36.7356 48.6539 32.6369 49.8655C28.5383 51.0771 24.2 51.2336 20.0248 50.3204C15.8495 49.4073 11.9726 47.454 8.75402 44.6421ZM2.25362e-05 25.4531C-0.00395746 18.7068 2.67202 12.2353 7.43932 7.462C12.2066 2.68869 18.6748 0.00457766 25.421 6.86646e-05C25.888 6.86646e-05 26.341 0.0440674 26.798 0.0700684C22.8 5.91507 12 22.3601 4.43102 39.8001C1.53807 35.5754 -0.00680546 30.5733 2.25362e-05 25.4531ZM38.155 3.44607C42.0142 5.6793 45.218 8.88831 47.4451 12.751C49.6721 16.6138 50.844 20.9943 50.843 25.4531C50.843 25.9961 50.796 26.5181 50.769 27.0531C46.128 27.7531 31.843 30.2611 20.239 36.0721C25.3023 24.7219 31.2947 13.8095 38.155 3.44607Z" fill="#FF0F00"/>
<path d="M47.86 44.9309C48.3949 44.922 48.9225 45.0563 49.388 45.3199C49.8326 45.5731 50.1986 45.9441 50.446 46.3919C50.705 46.8629 50.8367 47.3934 50.828 47.9309C50.8353 48.4692 50.7038 49.0003 50.446 49.4729C50.2004 49.9241 49.8341 50.298 49.388 50.5529C48.9225 50.8165 48.3949 50.9508 47.86 50.9419C47.3206 50.9516 46.7883 50.8174 46.318 50.5529C45.872 50.298 45.5056 49.9241 45.26 49.4729C45.0023 49.0003 44.8707 48.4692 44.878 47.9309C44.8701 47.3947 45.0017 46.8658 45.26 46.3959C45.5074 45.9481 45.8735 45.5771 46.318 45.3239C46.7879 45.058 47.3202 44.9224 47.86 44.9309ZM47.86 50.3519C48.1766 50.3646 48.4923 50.3111 48.7869 50.1946C49.0816 50.0782 49.3487 49.9015 49.571 49.6759C49.791 49.4433 49.9624 49.1691 50.0752 48.8695C50.188 48.5699 50.24 48.2508 50.228 47.9309C50.2408 47.6107 50.1895 47.2911 50.0772 46.991C49.9649 46.6908 49.7938 46.4161 49.574 46.1829C49.3517 45.9572 49.0846 45.7805 48.7899 45.6641C48.4953 45.5477 48.1796 45.4942 47.863 45.5069C47.5463 45.4923 47.23 45.545 46.9351 45.6615C46.6401 45.778 46.3733 45.9557 46.152 46.1829C45.7165 46.6583 45.4868 47.2867 45.513 47.9309C45.4868 48.5751 45.7165 49.2035 46.152 49.6789C46.3732 49.9051 46.6397 50.0821 46.9341 50.198C47.2284 50.314 47.544 50.3665 47.86 50.3519ZM49.182 47.3109C49.1888 47.5242 49.124 47.7336 48.998 47.9059C48.8697 48.0715 48.6922 48.1923 48.491 48.2509L49.314 49.4699L48.389 49.4849L47.684 48.3099H47.434V49.4849H46.67V46.3309H48.08C48.3702 46.3165 48.6554 46.4106 48.88 46.5949C48.9802 46.6845 49.0592 46.7952 49.1114 46.919C49.1636 47.0428 49.1877 47.1766 49.182 47.3109ZM47.434 47.6779H48.034C48.1322 47.6812 48.2284 47.65 48.306 47.5899C48.3428 47.5599 48.372 47.5216 48.3911 47.4781C48.4103 47.4347 48.4188 47.3873 48.416 47.3399C48.4191 47.2936 48.4106 47.2473 48.3915 47.2051C48.3723 47.1628 48.3429 47.126 48.306 47.0979C48.2266 47.0421 48.1311 47.0136 48.034 47.0169H47.434V47.6779Z" fill="#FF0F00"/>
<path d="M67.3719 37.11H74.0369V40.327H63.3149V20.1019H67.3719V37.11ZM91.5399 31.952C91.5442 32.4759 91.5054 32.9993 91.424 33.5169H79.6899C79.7283 34.5481 80.1645 35.5244 80.907 36.2409C81.6249 36.899 82.5704 37.2522 83.5439 37.226C84.2137 37.2661 84.88 37.1019 85.4544 36.7552C86.0289 36.4084 86.4845 35.8954 86.761 35.284H91.1369C90.6867 36.8106 89.7507 38.1486 88.4709 39.095C87.0694 40.1178 85.3661 40.6429 83.6319 40.587C82.1802 40.6102 80.7473 40.2556 79.4739 39.558C78.2577 38.883 77.2617 37.8721 76.6049 36.646C75.8989 35.3076 75.5448 33.8118 75.5759 32.299C75.5426 30.7784 75.8912 29.2738 76.5899 27.923C77.2331 26.6997 78.2204 25.6916 79.4299 25.023C80.7194 24.3292 82.166 23.9799 83.6299 24.009C85.0579 23.9851 86.4686 24.324 87.7299 24.994C88.9197 25.6336 89.8967 26.6067 90.541 27.7939C91.2248 29.0722 91.5688 30.5046 91.5399 31.954V31.952ZM87.3399 30.7929C87.3486 30.3175 87.2517 29.8461 87.0563 29.4126C86.8609 28.9791 86.5719 28.5943 86.2099 28.286C85.458 27.6511 84.4986 27.3158 83.515 27.344C82.5846 27.3168 81.6785 27.643 80.9789 28.257C80.2647 28.9211 79.8168 29.8226 79.7189 30.7929H87.3399ZM93.4539 32.242C93.4251 30.7454 93.7582 29.2641 94.4249 27.924C95.015 26.7294 95.9287 25.7246 97.062 25.024C98.1842 24.3446 99.4743 23.9934 100.786 24.01C101.878 23.985 102.959 24.2339 103.93 24.734C104.777 25.1735 105.515 25.7975 106.089 26.5599V24.271H110.175V40.3249H106.09V37.9779C105.53 38.7647 104.79 39.4057 103.931 39.847C102.952 40.3544 101.861 40.6084 100.758 40.586C99.4518 40.5991 98.1694 40.2371 97.0629 39.543C95.9304 38.8262 95.017 37.8114 94.4229 36.61C93.7544 35.2534 93.4214 33.756 93.4519 32.244L93.4539 32.242ZM106.089 32.3C106.114 31.4191 105.914 30.5465 105.509 29.764C105.15 29.0869 104.607 28.5245 103.944 28.1409C103.302 27.7682 102.572 27.5732 101.829 27.576C101.097 27.5705 100.377 27.7607 99.743 28.1269C99.0875 28.5112 98.5503 29.0681 98.1899 29.7369C97.778 30.507 97.5733 31.3709 97.5959 32.244C97.5756 33.126 97.78 33.9987 98.1899 34.78C98.5508 35.467 99.0918 36.0429 99.7549 36.446C100.379 36.8261 101.096 37.0268 101.827 37.026C102.57 37.0288 103.3 36.8337 103.942 36.461C104.606 36.0774 105.148 35.515 105.507 34.8379C105.913 34.0557 106.114 33.183 106.09 32.302L106.089 32.3ZM120.289 40.588C119.073 40.6079 117.868 40.3657 116.754 39.878C115.777 39.457 114.924 38.7938 114.276 37.951C113.68 37.1733 113.331 36.2343 113.276 35.256H117.362C117.4 35.5612 117.5 35.8552 117.658 36.1196C117.815 36.3839 118.025 36.6129 118.275 36.792C118.85 37.2117 119.549 37.4262 120.26 37.401C120.897 37.4375 121.53 37.2754 122.071 36.937C122.271 36.8103 122.436 36.6349 122.55 36.4271C122.664 36.2193 122.724 35.986 122.723 35.749C122.724 35.4953 122.648 35.2472 122.505 35.0376C122.363 34.828 122.159 34.6667 121.923 34.5749C121.105 34.2149 120.256 33.9288 119.387 33.72C118.386 33.4906 117.404 33.1898 116.446 32.82C115.684 32.512 115.008 32.0249 114.475 31.4C113.893 30.6704 113.599 29.7527 113.649 28.8209C113.644 27.9492 113.912 27.0978 114.417 26.387C114.976 25.6152 115.737 25.0132 116.617 24.648C117.685 24.2009 118.835 23.9835 119.993 24.01C121.642 23.9241 123.267 24.433 124.572 25.444C125.138 25.9219 125.599 26.5129 125.923 27.1792C126.247 27.8456 126.429 28.5723 126.456 29.313H122.573C122.554 29.0173 122.474 28.729 122.336 28.4669C122.198 28.2047 122.006 27.9747 121.773 27.792C121.223 27.391 120.552 27.1915 119.873 27.2269C119.279 27.19 118.687 27.3314 118.173 27.633C117.985 27.7538 117.831 27.9215 117.727 28.1195C117.623 28.3176 117.572 28.5393 117.579 28.763C117.577 29.0255 117.653 29.2826 117.798 29.5019C117.942 29.7212 118.148 29.8928 118.39 29.995C119.198 30.3682 120.043 30.6548 120.911 30.8499C121.887 31.0823 122.846 31.3831 123.78 31.75C124.538 32.0626 125.21 32.5547 125.736 33.1839C126.315 33.9113 126.618 34.8198 126.591 35.749C126.602 36.6396 126.334 37.5112 125.823 38.2409C125.266 39.0108 124.504 39.6083 123.623 39.965C122.566 40.3992 121.432 40.612 120.29 40.59L120.289 40.588ZM131.99 22.362C131.663 22.3721 131.337 22.3172 131.031 22.2003C130.725 22.0834 130.445 21.9068 130.208 21.681C129.977 21.4636 129.794 21.1998 129.671 20.9068C129.549 20.6139 129.49 20.2983 129.498 19.981C129.49 19.6636 129.549 19.348 129.671 19.0551C129.794 18.7621 129.977 18.4983 130.208 18.281C130.446 18.0569 130.726 17.8822 131.032 17.767C131.338 17.6518 131.663 17.5984 131.99 17.61C132.317 17.5998 132.643 17.6547 132.949 17.7716C133.255 17.8885 133.535 18.0651 133.772 18.291C134.003 18.5083 134.186 18.7721 134.309 19.0651C134.431 19.358 134.49 19.6736 134.482 19.9909C134.49 20.3083 134.431 20.6239 134.309 20.9168C134.186 21.2098 134.003 21.4736 133.772 21.691C133.534 21.9151 133.254 22.0897 132.948 22.2049C132.642 22.3201 132.317 22.3735 131.99 22.362ZM133.99 24.275V40.329H129.933V24.275H133.99ZM146.89 24.043C147.746 24.0073 148.6 24.1499 149.399 24.4616C150.197 24.7733 150.922 25.2475 151.527 25.854C152.141 26.5378 152.614 27.3369 152.916 28.2049C153.219 29.0729 153.346 29.9924 153.29 30.91V40.328H149.233V31.4609C149.304 30.3942 148.962 29.3411 148.277 28.52C147.941 28.1722 147.534 27.9004 147.084 27.7229C146.635 27.5454 146.152 27.4663 145.669 27.4909C145.179 27.4654 144.69 27.5439 144.233 27.7213C143.776 27.8987 143.361 28.1709 143.017 28.52C142.323 29.3369 141.975 30.3917 142.046 31.4609V40.328H137.99V24.275H142.047V26.275C142.597 25.5721 143.308 25.0108 144.119 24.638C144.987 24.2353 145.933 24.032 146.89 24.043ZM163.437 24.014C164.532 23.9903 165.616 24.234 166.596 24.724C167.451 25.1517 168.187 25.7837 168.74 26.564V24.275H172.826V40.445C172.85 41.8262 172.541 43.193 171.926 44.43C171.323 45.6035 170.385 46.5717 169.231 47.212C167.898 47.9312 166.398 48.2861 164.884 48.241C162.892 48.3253 160.926 47.7664 159.277 46.647C158.571 46.1478 157.983 45.4998 157.555 44.7487C157.127 43.9976 156.869 43.1617 156.799 42.3H160.827C161.044 43.0393 161.536 43.667 162.203 44.053C162.98 44.5064 163.869 44.7323 164.768 44.705C165.292 44.7271 165.816 44.6449 166.308 44.4633C166.801 44.2817 167.252 44.0043 167.637 43.647C168.03 43.2174 168.33 42.7117 168.519 42.1612C168.709 41.6107 168.783 41.0272 168.737 40.447V37.955C168.175 38.7439 167.436 39.3893 166.578 39.8389C165.611 40.3532 164.529 40.6123 163.434 40.592C162.124 40.6035 160.837 40.2417 159.725 39.549C158.586 38.8335 157.669 37.8161 157.074 36.61C156.406 35.2548 156.073 33.7593 156.103 32.249C156.074 30.7524 156.407 29.2711 157.074 27.931C157.664 26.7365 158.578 25.7317 159.711 25.031C160.832 24.3492 162.123 23.9955 163.435 24.01L163.437 24.014ZM168.737 32.302C168.762 31.4211 168.562 30.5485 168.157 29.7659C167.798 29.0889 167.255 28.5265 166.592 28.1429C165.949 27.77 165.219 27.575 164.476 27.578C163.744 27.5725 163.024 27.7628 162.39 28.1289C161.736 28.5131 161.2 29.0693 160.84 29.7369C160.428 30.507 160.223 31.3709 160.246 32.244C160.226 33.126 160.43 33.9987 160.84 34.78C161.201 35.467 161.742 36.0428 162.405 36.446C163.029 36.826 163.746 37.0267 164.477 37.026C165.22 37.0289 165.95 36.8339 166.593 36.461C167.256 36.0774 167.799 35.515 168.158 34.8379C168.563 34.0554 168.763 33.1828 168.738 32.302H168.737Z" fill="#181C21"/>
<path d="M188.59 40.5319C186.765 40.5493 184.967 40.0898 183.374 39.1989C181.809 38.3286 180.507 37.0521 179.607 35.5039C178.667 33.8808 178.186 32.0324 178.216 30.1569C178.188 28.2908 178.669 26.4524 179.607 24.8389C180.507 23.2907 181.809 22.0142 183.374 21.1439C184.967 20.2529 186.765 19.7934 188.59 19.8109C190.42 19.7897 192.224 20.2493 193.821 21.1439C195.378 22.0153 196.67 23.2922 197.559 24.8389C198.488 26.4555 198.963 28.2927 198.935 30.1569C198.965 32.0305 198.49 33.8777 197.559 35.5039C196.667 37.0535 195.369 38.3308 193.806 39.1989C192.213 40.0898 190.415 40.5493 188.59 40.5319ZM188.59 36.9099C189.718 36.9333 190.83 36.6476 191.807 36.0839C192.744 35.5226 193.499 34.7023 193.98 33.7219C194.521 32.6131 194.789 31.3912 194.762 30.1579C194.79 28.9289 194.522 27.7113 193.98 26.6079C193.498 25.6356 192.743 24.8249 191.807 24.2749C190.827 23.7205 189.716 23.4403 188.59 23.4639C187.46 23.4416 186.344 23.7216 185.359 24.2749C184.416 24.8219 183.656 25.6339 183.171 26.6099C182.629 27.7133 182.361 28.931 182.389 30.1599C182.362 31.3932 182.63 32.6151 183.171 33.7239C183.655 34.7074 184.415 35.5282 185.359 36.0859C186.342 36.6478 187.458 36.9325 188.59 36.9099ZM206.006 26.5939C206.573 25.8209 207.312 25.1909 208.165 24.7539C209.135 24.2487 210.216 23.9946 211.309 24.0149C212.621 23.9983 213.911 24.3496 215.033 25.0289C216.161 25.7259 217.073 26.7235 217.666 27.9099C218.336 29.2539 218.669 30.7406 218.637 32.2419C218.668 33.7546 218.335 35.2527 217.666 36.6099C217.074 37.8139 216.161 38.8315 215.029 39.5509C213.913 40.2478 212.62 40.6098 211.305 40.5939C210.222 40.6167 209.151 40.3678 208.19 39.8699C207.338 39.4256 206.592 38.8028 206.002 38.0439V47.9839H201.945V24.2839H206.002L206.006 26.5939ZM214.497 32.2449C214.52 31.3719 214.315 30.5079 213.903 29.7379C213.54 29.0672 212.999 28.5104 212.338 28.1299C211.699 27.7648 210.974 27.5748 210.238 27.5789C209.509 27.5774 208.793 27.7726 208.166 28.1439C207.504 28.536 206.963 29.1022 206.601 29.7809C206.19 30.5565 205.986 31.4245 206.007 32.3019C205.986 33.1792 206.19 34.0473 206.601 34.8229C206.963 35.5016 207.504 36.0678 208.166 36.4599C208.793 36.8312 209.509 37.0263 210.238 37.0249C210.978 37.0282 211.705 36.8275 212.338 36.4449C212.998 36.0448 213.539 35.4741 213.903 34.7929C214.316 34.008 214.52 33.1314 214.497 32.2449ZM226.32 27.6099V35.3759C226.3 35.588 226.325 35.8019 226.392 36.004C226.459 36.2061 226.568 36.392 226.711 36.5499C227.091 36.8282 227.561 36.957 228.03 36.9119H229.914V40.3309H227.364C223.945 40.3309 222.235 38.6696 222.235 35.3469V27.6099H220.322V24.2769H222.235V20.3069H226.321V24.2769H229.914V27.6099H226.32ZM234.898 22.3649C234.571 22.3751 234.244 22.3201 233.939 22.2032C233.633 22.0863 233.353 21.9098 233.116 21.6839C232.884 21.4665 232.702 21.2027 232.579 20.9098C232.457 20.6168 232.398 20.3013 232.406 19.9839C232.398 19.6665 232.457 19.351 232.579 19.058C232.702 18.765 232.884 18.5012 233.116 18.2839C233.354 18.0593 233.633 17.884 233.939 17.7683C234.245 17.6526 234.571 17.5988 234.898 17.6099C235.225 17.5997 235.551 17.6547 235.857 17.7716C236.163 17.8885 236.443 18.065 236.68 18.2909C236.911 18.5082 237.094 18.772 237.217 19.065C237.339 19.358 237.398 19.6735 237.39 19.9909C237.398 20.3083 237.339 20.6238 237.217 20.9168C237.094 21.2097 236.911 21.4735 236.68 21.6909C236.442 21.915 236.162 22.0897 235.856 22.2048C235.55 22.32 235.225 22.3734 234.898 22.3619V22.3649ZM236.898 24.2779V40.3319H232.841V24.2749L236.898 24.2779ZM248.026 40.5929C246.57 40.615 245.132 40.2606 243.853 39.5639C242.627 38.888 241.617 37.8783 240.941 36.6519C240.217 35.3194 239.852 33.8212 239.883 32.3049C239.852 30.785 240.227 29.2843 240.97 27.9579C241.668 26.7283 242.697 25.7194 243.94 25.0459C245.23 24.3516 246.675 23.9975 248.14 24.0169C249.605 23.9975 251.05 24.3516 252.34 25.0459C253.583 25.7194 254.612 26.7283 255.31 27.9579C256.053 29.2843 256.428 30.785 256.397 32.3049C256.428 33.8285 256.042 35.3316 255.281 36.6519C254.564 37.8817 253.521 38.8895 252.267 39.5639C250.962 40.2581 249.503 40.6111 248.025 40.5899L248.026 40.5929ZM248.026 37.0579C248.751 37.0602 249.465 36.8756 250.098 36.5219C250.76 36.1485 251.299 35.5895 251.648 34.9139C252.056 34.1065 252.255 33.2099 252.227 32.3059C252.269 31.6688 252.185 31.0296 251.979 30.4253C251.773 29.8209 251.45 29.2634 251.027 28.7849C250.649 28.3866 250.193 28.0713 249.686 27.8592C249.18 27.6471 248.635 27.5428 248.086 27.5529C247.541 27.541 247 27.6447 246.498 27.857C245.996 28.0694 245.545 28.3856 245.174 28.7849C244.337 29.7595 243.915 31.0238 244 32.3059C243.915 33.5831 244.325 34.8438 245.145 35.8269C245.509 36.2258 245.955 36.5418 246.452 36.7535C246.948 36.9652 247.485 37.0677 248.025 37.0539L248.026 37.0579ZM268.282 24.0469C269.138 24.0112 269.992 24.1538 270.791 24.4655C271.589 24.7773 272.314 25.2514 272.919 25.8579C273.534 26.5414 274.007 27.3406 274.311 28.2087C274.615 29.0769 274.742 29.9968 274.687 30.9149V40.3329H270.63V31.4659C270.701 30.3992 270.358 29.3461 269.674 28.5249C269.338 28.1771 268.931 27.9054 268.481 27.7279C268.032 27.5504 267.549 27.4713 267.066 27.4959C266.576 27.4704 266.087 27.549 265.63 27.7263C265.173 27.9037 264.759 28.1759 264.415 28.5249C263.721 29.3418 263.373 30.3966 263.444 31.4659V40.3329H259.387V24.2749H263.444V26.2749C263.994 25.5719 264.705 25.0106 265.516 24.6379C266.382 24.2361 267.326 24.0328 268.281 24.0429L268.282 24.0469ZM284.682 40.5939C283.466 40.6138 282.261 40.3717 281.147 39.8839C280.17 39.4629 279.317 38.7997 278.669 37.9569C278.073 37.1792 277.724 36.2402 277.669 35.2619H281.755C281.793 35.5671 281.893 35.8612 282.05 36.1256C282.208 36.3899 282.418 36.6189 282.668 36.7979C283.243 37.2176 283.942 37.4321 284.653 37.4069C285.291 37.4427 285.925 37.2791 286.466 36.9389C286.666 36.8123 286.831 36.6368 286.945 36.429C287.059 36.2212 287.119 35.9879 287.118 35.7509C287.119 35.4972 287.043 35.2492 286.9 35.0396C286.758 34.8299 286.554 34.6686 286.318 34.5769C285.5 34.2168 284.651 33.9307 283.782 33.7219C282.781 33.4925 281.799 33.1918 280.841 32.8219C280.08 32.5139 279.404 32.0268 278.871 31.4019C278.289 30.6724 277.995 29.7547 278.045 28.8229C278.04 27.9511 278.308 27.0998 278.813 26.3889C279.372 25.6171 280.133 25.0152 281.013 24.6499C282.081 24.2028 283.231 23.9855 284.389 24.0119C286.038 23.9262 287.663 24.435 288.968 25.4459C289.534 25.9238 289.995 26.5149 290.319 27.1812C290.643 27.8475 290.825 28.5743 290.852 29.3149H286.969C286.95 29.0193 286.87 28.7309 286.732 28.4688C286.594 28.2067 286.402 27.9767 286.169 27.7939C285.619 27.3929 284.948 27.1934 284.269 27.2289C283.674 27.1919 283.083 27.3333 282.569 27.6349C282.381 27.7557 282.227 27.9234 282.123 28.1215C282.019 28.3195 281.968 28.5412 281.975 28.7649C281.973 29.0274 282.049 29.2845 282.194 29.5038C282.338 29.7231 282.544 29.8947 282.786 29.9969C283.594 30.3701 284.439 30.6567 285.307 30.8519C286.283 31.0843 287.242 31.385 288.176 31.7519C288.934 32.0646 289.606 32.5566 290.132 33.1859C290.711 33.9132 291.013 34.8218 290.987 35.7509C290.998 36.6415 290.73 37.5132 290.219 38.2429C289.662 39.0128 288.9 39.6103 288.019 39.9669C286.961 40.401 285.825 40.6131 284.682 40.5899V40.5939Z" fill="#181C21"/>
<path d="M260.292 50.14C260.17 50.1444 260.048 50.1245 259.933 50.0814C259.819 50.0383 259.714 49.9729 259.625 49.889C259.54 49.8092 259.473 49.7124 259.428 49.6049C259.383 49.4973 259.361 49.3815 259.364 49.265C259.361 49.1485 259.383 49.0327 259.428 48.9252C259.473 48.8177 259.54 48.7209 259.625 48.641C259.714 48.5571 259.819 48.4917 259.933 48.4486C260.048 48.4056 260.17 48.3856 260.292 48.39C260.412 48.386 260.531 48.4061 260.643 48.4492C260.755 48.4924 260.857 48.5576 260.943 48.641C261.027 48.7216 261.092 48.8187 261.137 48.9261C261.181 49.0336 261.202 49.149 261.199 49.265C261.202 49.3811 261.181 49.4965 261.137 49.6039C261.092 49.7113 261.027 49.8084 260.943 49.889C260.857 49.9725 260.755 50.0377 260.643 50.0808C260.531 50.124 260.412 50.1441 260.292 50.14ZM262.02 47.111C262.008 46.5548 262.136 46.0046 262.393 45.511C262.63 45.065 262.988 44.6953 263.427 44.445C263.889 44.187 264.412 44.0563 264.941 44.066C265.591 44.0407 266.231 44.2339 266.759 44.615C267.251 45.0001 267.592 45.5454 267.724 46.156H266.114C266.038 45.9148 265.887 45.7044 265.682 45.556C265.461 45.4046 265.198 45.3279 264.93 45.337C264.737 45.3293 264.544 45.3672 264.368 45.4479C264.192 45.5285 264.037 45.6495 263.917 45.801C263.646 46.1844 263.514 46.6493 263.544 47.118C263.515 47.5832 263.647 48.0443 263.917 48.424C264.037 48.5756 264.192 48.6966 264.368 48.7772C264.544 48.8578 264.737 48.8958 264.93 48.888C265.191 48.9106 265.451 48.8422 265.667 48.6945C265.883 48.5469 266.041 48.329 266.114 48.078H267.724C267.584 48.6819 267.241 49.2199 266.754 49.603C266.232 49.9924 265.592 50.1917 264.941 50.168C264.412 50.1778 263.889 50.047 263.427 49.789C262.988 49.5388 262.63 49.1691 262.393 48.723C262.135 48.2269 262.006 47.6733 262.019 47.114L262.02 47.111ZM271.447 50.161C270.911 50.1691 270.382 50.0386 269.911 49.782C269.459 49.5333 269.088 49.1615 268.839 48.71C268.572 48.2196 268.438 47.6681 268.45 47.11C268.439 46.5506 268.577 45.9983 268.85 45.51C269.107 45.0574 269.485 44.686 269.943 44.438C270.418 44.1824 270.95 44.0519 271.489 44.059C272.028 44.0519 272.56 44.1824 273.035 44.438C273.493 44.686 273.871 45.0574 274.128 45.51C274.401 45.9983 274.539 46.5506 274.528 47.11C274.539 47.6708 274.397 48.2241 274.117 48.71C273.853 49.1627 273.469 49.5337 273.008 49.782C272.528 50.0382 271.991 50.1686 271.447 50.161ZM271.447 48.861C271.714 48.861 271.976 48.7921 272.209 48.661C272.453 48.5237 272.652 48.3179 272.78 48.069C272.93 47.7718 273.003 47.4418 272.993 47.109C273.009 46.8738 272.978 46.6377 272.902 46.4145C272.826 46.1914 272.706 45.9855 272.55 45.809C272.411 45.6626 272.243 45.5467 272.057 45.4687C271.87 45.3907 271.67 45.3523 271.468 45.356C271.267 45.3516 271.068 45.3897 270.884 45.4678C270.699 45.5458 270.533 45.6621 270.396 45.809C270.087 46.1688 269.932 46.6358 269.964 47.109C269.932 47.5804 270.082 48.0461 270.385 48.409C270.519 48.5559 270.683 48.6722 270.866 48.75C271.049 48.8278 271.247 48.8653 271.446 48.86L271.447 48.861ZM276.288 50.141C276.166 50.1453 276.044 50.1253 275.93 50.0822C275.816 50.0391 275.711 49.9738 275.622 49.89C275.537 49.8102 275.47 49.7134 275.425 49.6059C275.38 49.4983 275.358 49.3825 275.361 49.266C275.358 49.1495 275.38 49.0337 275.425 48.9262C275.47 48.8187 275.537 48.7219 275.622 48.642C275.711 48.5582 275.816 48.4929 275.93 48.4498C276.044 48.4068 276.166 48.3868 276.288 48.391C276.408 48.3869 276.527 48.407 276.639 48.4502C276.751 48.4933 276.853 48.5586 276.939 48.642C277.023 48.7226 277.088 48.8197 277.133 48.9271C277.177 49.0346 277.198 49.15 277.195 49.266C277.198 49.3821 277.177 49.4975 277.133 49.6049C277.088 49.7123 277.023 49.8094 276.939 49.89C276.853 49.9733 276.751 50.0384 276.639 50.0814C276.527 50.1243 276.408 50.1453 276.288 50.141ZM283.977 44.158V50.066H282.477V49.314C282.28 49.5731 282.021 49.7792 281.725 49.914C281.41 50.0613 281.065 50.1361 280.717 50.133C280.29 50.1417 279.868 50.0408 279.491 49.84C279.133 49.6414 278.841 49.3406 278.654 48.976C278.443 48.5544 278.34 48.0872 278.354 47.616V44.15H279.847V47.414C279.821 47.8065 279.947 48.1939 280.199 48.496C280.323 48.6241 280.472 48.7242 280.638 48.7896C280.804 48.855 280.981 48.8841 281.159 48.875C281.338 48.8846 281.518 48.8558 281.685 48.7904C281.852 48.7251 282.004 48.6247 282.129 48.496C282.377 48.1923 282.499 47.8051 282.47 47.414V44.161L283.977 44.158ZM288.946 50.066L286.946 47.549V50.066H285.453V42.174H286.946V46.664L288.93 44.158H290.871L288.271 47.123L290.894 50.066H288.946Z" fill="#FF0F00"/>
<path d="M63.667 7.36871C63.6551 6.69237 63.8173 6.02432 64.138 5.42871C64.4415 4.87097 64.8967 4.41055 65.451 4.10071C66.0347 3.7777 66.6929 3.61356 67.36 3.62471C68.1615 3.60279 68.9479 3.84527 69.598 4.31471C70.2197 4.77773 70.6595 5.44402 70.841 6.19771H68.875C68.7427 5.90716 68.5259 5.66322 68.253 5.49771C67.9759 5.33488 67.6593 5.2515 67.338 5.25671C67.0862 5.24787 66.8356 5.29484 66.6041 5.39425C66.3726 5.49366 66.1659 5.64305 65.999 5.83171C65.6413 6.26155 65.4585 6.81026 65.487 7.36871C65.4585 7.92717 65.6413 8.47587 65.999 8.90571C66.1659 9.09438 66.3726 9.24377 66.6041 9.34318C66.8356 9.44259 67.0862 9.48956 67.338 9.48071C67.6593 9.48592 67.9759 9.40254 68.253 9.23971C68.5259 9.07421 68.7427 8.83026 68.875 8.53971H70.841C70.6596 9.29234 70.2188 9.95696 69.596 10.4167C68.9447 10.8831 68.1587 11.1237 67.358 11.1017C66.6909 11.1129 66.0327 10.9487 65.449 10.6257C64.8957 10.3168 64.4407 9.85829 64.136 9.30271C63.8157 8.70917 63.6542 8.04301 63.667 7.36871ZM71.95 8.12171C71.9382 7.57603 72.0546 7.03519 72.29 6.54271C72.4946 6.1142 72.8154 5.75177 73.216 5.49671C73.6077 5.25233 74.0613 5.12532 74.523 5.13071C74.899 5.12247 75.271 5.20878 75.605 5.38171C75.8982 5.53351 76.1454 5.76106 76.321 6.04071V5.21471H78.109V11.0507H76.322V10.2247C76.1404 10.5033 75.89 10.7303 75.595 10.8837C75.261 11.0566 74.889 11.143 74.513 11.1347C74.0528 11.1397 73.6012 11.0108 73.213 10.7637C72.8121 10.5047 72.4914 10.139 72.287 9.70771C72.0528 9.21246 71.9374 8.6694 71.95 8.12171ZM76.322 8.13171C76.3325 7.93995 76.3052 7.748 76.2415 7.56681C76.1779 7.38561 76.0791 7.21874 75.951 7.07571C75.8364 6.95183 75.6971 6.85337 75.542 6.78671C75.387 6.72005 75.2197 6.68666 75.051 6.68871C74.8827 6.68652 74.7157 6.71934 74.5608 6.7851C74.4059 6.85087 74.2663 6.94813 74.151 7.07071C74.0226 7.21258 73.9237 7.37855 73.86 7.55898C73.7963 7.7394 73.7691 7.93069 73.78 8.12171C73.7591 8.51073 73.8924 8.89229 74.151 9.18371C74.2649 9.30881 74.4039 9.4084 74.559 9.47595C74.7142 9.54351 74.8818 9.57751 75.051 9.57571C75.2197 9.57777 75.387 9.54438 75.542 9.47772C75.6971 9.41106 75.8364 9.3126 75.951 9.18871C76.0791 9.04569 76.1779 8.87881 76.2415 8.69762C76.3052 8.51643 76.3325 8.32347 76.322 8.13171ZM81.562 6.18671C81.7605 5.87628 82.029 5.61668 82.346 5.42871C82.663 5.24312 83.0246 5.14736 83.392 5.15171V7.04471H82.9C82.543 7.01893 82.1885 7.12102 81.9 7.33271C81.7739 7.467 81.6783 7.62696 81.6198 7.80163C81.5613 7.97631 81.5412 8.16156 81.561 8.34471V11.0537H79.773V5.21471H81.561L81.562 6.18671ZM86.99 11.1337C86.5234 11.1423 86.0602 11.0534 85.63 10.8727C85.2598 10.7192 84.9356 10.4726 84.689 10.1567C84.4622 9.86232 84.3275 9.50744 84.302 9.13671H86.069C86.0777 9.2342 86.1075 9.32864 86.1561 9.41356C86.2048 9.49848 86.2713 9.57188 86.351 9.62871C86.5302 9.75781 86.7472 9.82392 86.968 9.81671C87.15 9.82772 87.331 9.78195 87.486 9.68571C87.5427 9.64909 87.5892 9.59871 87.6212 9.53926C87.6532 9.47981 87.6696 9.41322 87.669 9.34571C87.6693 9.26445 87.6443 9.18509 87.5976 9.11863C87.5508 9.05216 87.4846 9.00187 87.408 8.97471C87.1336 8.8621 86.8503 8.77278 86.561 8.70771C86.2056 8.62877 85.8561 8.52553 85.515 8.39871C85.2356 8.29054 84.9875 8.11459 84.793 7.88671C84.5808 7.61859 84.4741 7.2821 84.493 6.94071C84.4903 6.61468 84.5869 6.29555 84.77 6.02571C84.9741 5.73439 85.2572 5.50748 85.586 5.37171C85.9913 5.2022 86.4278 5.12008 86.867 5.13071C87.4909 5.09537 88.1064 5.28879 88.598 5.67471C89.0216 6.04061 89.283 6.55948 89.325 7.11771H87.669C87.6586 7.02384 87.6296 6.93296 87.5838 6.85038C87.538 6.76781 87.4761 6.69517 87.402 6.63671C87.2312 6.51147 87.0225 6.44863 86.811 6.45871C86.6421 6.44793 86.474 6.48986 86.33 6.57871C86.2767 6.61512 86.2335 6.66434 86.2044 6.72184C86.1752 6.77934 86.1609 6.84326 86.163 6.90771C86.1632 6.99028 86.189 7.07074 86.2368 7.13806C86.2846 7.20538 86.3521 7.25626 86.43 7.28371C86.6977 7.39539 86.9762 7.47949 87.261 7.53471C87.6193 7.62287 87.972 7.73274 88.317 7.86371C88.5951 7.97643 88.841 8.15608 89.033 8.38671C89.2503 8.66117 89.3634 9.0038 89.352 9.35371C89.3562 9.68165 89.2552 10.0023 89.064 10.2687C88.8529 10.5525 88.5668 10.7717 88.238 10.9017C87.8416 11.0628 87.4177 11.1417 86.99 11.1337Z" fill="#FF0F00"/>
<path d="M102.872 3.70898L100.272 11.051H98.0299L95.4299 3.70898H97.3299L99.1479 9.25198L100.978 3.70898H102.872ZM103.625 8.12198C103.613 7.5763 103.73 7.03546 103.965 6.54298C104.169 6.113 104.49 5.74912 104.891 5.49298C105.283 5.2486 105.736 5.12158 106.198 5.12698C106.574 5.11874 106.946 5.20505 107.28 5.37798C107.573 5.52978 107.82 5.75732 107.996 6.03698V5.21098H109.784V11.047H107.997V10.221C107.815 10.4996 107.565 10.7266 107.27 10.88C106.936 11.0529 106.564 11.1392 106.188 11.131C105.728 11.136 105.276 11.0071 104.888 10.76C104.487 10.5009 104.166 10.1352 103.962 9.70398C103.728 9.20994 103.613 8.66832 103.625 8.12198ZM107.997 8.13198C108.007 7.94022 107.98 7.74826 107.916 7.56707C107.853 7.38588 107.754 7.219 107.626 7.07598C107.511 6.9521 107.372 6.85364 107.217 6.78698C107.062 6.72031 106.895 6.68693 106.726 6.68898C106.558 6.68679 106.391 6.71961 106.236 6.78537C106.081 6.85113 105.941 6.9484 105.826 7.07098C105.698 7.21285 105.599 7.37882 105.535 7.55924C105.471 7.73967 105.444 7.93095 105.455 8.12198C105.434 8.511 105.567 8.89255 105.826 9.18398C105.94 9.30907 106.079 9.40866 106.234 9.47622C106.389 9.54378 106.557 9.57778 106.726 9.57598C106.895 9.57803 107.062 9.54465 107.217 9.47798C107.372 9.41132 107.511 9.31287 107.626 9.18898C107.754 9.04596 107.853 8.87908 107.916 8.69789C107.98 8.5167 108.007 8.32474 107.997 8.13298V8.13198ZM115.004 5.15098C115.309 5.13732 115.612 5.18957 115.895 5.30417C116.177 5.41876 116.432 5.593 116.641 5.81498C117.072 6.3221 117.291 6.97562 117.253 7.63998V11.049H115.475V7.87998C115.496 7.54926 115.389 7.22309 115.175 6.96998C115.07 6.86097 114.943 6.77568 114.802 6.7198C114.661 6.66392 114.51 6.63875 114.359 6.64598C114.208 6.63875 114.057 6.66392 113.916 6.7198C113.775 6.77568 113.648 6.86097 113.543 6.96998C113.329 7.22309 113.221 7.54926 113.243 7.87998V11.049H111.448V5.21298H113.236V5.98698C113.423 5.72364 113.676 5.51291 113.968 5.37498C114.292 5.22196 114.646 5.14465 115.004 5.15098ZM121.237 11.133C120.77 11.1415 120.307 11.0526 119.877 10.872C119.507 10.7185 119.183 10.4719 118.936 10.156C118.709 9.86159 118.575 9.50671 118.549 9.13598H120.316C120.325 9.23347 120.354 9.32791 120.403 9.41283C120.452 9.49775 120.518 9.57114 120.598 9.62798C120.777 9.75708 120.994 9.82318 121.215 9.81598C121.397 9.82699 121.578 9.78122 121.733 9.68498C121.79 9.64836 121.836 9.59797 121.868 9.53852C121.9 9.47907 121.917 9.41249 121.916 9.34498C121.916 9.26372 121.891 9.18436 121.845 9.11789C121.798 9.05143 121.732 9.00114 121.655 8.97398C121.381 8.86136 121.097 8.77205 120.808 8.70698C120.453 8.62804 120.103 8.5248 119.762 8.39798C119.483 8.28981 119.234 8.11386 119.04 7.88598C118.828 7.61786 118.721 7.28137 118.74 6.93998C118.737 6.61394 118.834 6.29482 119.017 6.02498C119.221 5.73366 119.504 5.50675 119.833 5.37098C120.238 5.20147 120.675 5.11935 121.114 5.12998C121.738 5.09464 122.353 5.28805 122.845 5.67398C123.269 6.03988 123.53 6.55875 123.572 7.11698H121.917C121.907 7.0231 121.878 6.93223 121.832 6.84965C121.786 6.76707 121.724 6.69444 121.65 6.63598C121.479 6.51073 121.271 6.4479 121.059 6.45798C120.89 6.4472 120.722 6.48913 120.578 6.57798C120.525 6.61439 120.482 6.66361 120.452 6.72111C120.423 6.77861 120.409 6.84253 120.411 6.90698C120.411 6.98955 120.437 7.07001 120.485 7.13733C120.533 7.20465 120.6 7.25553 120.678 7.28298C120.946 7.39465 121.224 7.47875 121.509 7.53398C121.867 7.62213 122.22 7.732 122.565 7.86298C122.843 7.9757 123.089 8.15535 123.281 8.38598C123.498 8.66044 123.611 9.00306 123.6 9.35298C123.604 9.68092 123.503 10.0016 123.312 10.268C123.101 10.5517 122.815 10.771 122.486 10.901C122.09 11.0624 121.665 11.1407 121.237 11.133Z" fill="#FF0F00"/>
<path d="M135.832 5.94189C135.836 6.33953 135.738 6.73153 135.546 7.07989C135.341 7.43734 135.036 7.72667 134.668 7.91189C134.212 8.13662 133.707 8.24516 133.198 8.22789H132.12V10.8009H130.374V3.63489H133.202C133.702 3.62082 134.199 3.72354 134.652 3.93489C135.024 4.11119 135.333 4.39605 135.54 4.75189C135.74 5.11617 135.84 5.52651 135.832 5.94189ZM133.065 6.84189C133.334 6.86324 133.602 6.77897 133.81 6.60689C133.895 6.51935 133.96 6.41507 134.003 6.30074C134.045 6.1864 134.063 6.06453 134.055 5.94289C134.063 5.82126 134.045 5.69938 134.003 5.58505C133.96 5.47071 133.895 5.36644 133.81 5.27889C133.602 5.10682 133.334 5.02255 133.065 5.04389H132.12V6.84389L133.065 6.84189ZM137.976 4.51389C137.7 4.52484 137.431 4.42759 137.226 4.24289C137.132 4.1588 137.058 4.05553 137.008 3.94009C136.957 3.82465 136.933 3.69976 136.935 3.57389C136.933 3.446 136.958 3.31912 137.009 3.20193C137.061 3.08474 137.137 2.98 137.232 2.89489C137.437 2.71019 137.706 2.61294 137.982 2.62389C138.255 2.61408 138.52 2.71136 138.722 2.89489C138.816 2.98055 138.891 3.08554 138.941 3.2027C138.992 3.31986 139.016 3.44646 139.013 3.57389C139.015 3.69976 138.991 3.82465 138.94 3.94009C138.89 4.05553 138.816 4.1588 138.722 4.24289C138.52 4.42656 138.253 4.5235 137.98 4.51289L137.976 4.51389ZM138.844 5.10589V10.8059H137.102V5.10589H138.844ZM140.12 7.95389C140.107 7.41426 140.232 6.88024 140.482 6.40189C140.713 5.97056 141.064 5.61576 141.493 5.38089C141.949 5.13688 142.461 5.01396 142.978 5.02389C143.622 5.0013 144.254 5.19961 144.77 5.58589C145.264 5.9833 145.599 6.5446 145.714 7.16789H143.86C143.805 6.97184 143.686 6.80028 143.52 6.68155C143.355 6.56281 143.154 6.50403 142.951 6.51489C142.803 6.51036 142.655 6.54194 142.522 6.60691C142.389 6.67189 142.273 6.76832 142.185 6.88789C141.975 7.20256 141.875 7.57748 141.899 7.95489C141.875 8.3323 141.975 8.70722 142.185 9.02189C142.273 9.14147 142.389 9.2379 142.522 9.30287C142.655 9.36785 142.803 9.39943 142.951 9.39489C143.154 9.40576 143.355 9.34697 143.52 9.22824C143.686 9.10951 143.805 8.93794 143.86 8.74189H145.718C145.597 9.36149 145.261 9.91834 144.769 10.3139C144.257 10.7044 143.626 10.9064 142.982 10.8859C142.465 10.8958 141.953 10.7729 141.497 10.5289C141.068 10.294 140.717 9.93923 140.486 9.50789C140.235 9.02865 140.111 8.49354 140.124 7.95289L140.12 7.95389ZM150.482 10.8019L148.746 8.41289V10.8019H147.005V3.24689H148.751V7.42289L150.476 5.10489H152.632L150.262 7.96489L152.651 10.8029L150.482 10.8019ZM159.293 5.10189V10.8019H157.551V10.0259C157.365 10.285 157.118 10.4936 156.831 10.6329C156.519 10.7882 156.174 10.8671 155.825 10.8629C155.421 10.8711 155.023 10.7706 154.671 10.5719C154.334 10.3746 154.064 10.0815 153.895 9.72989C153.702 9.32417 153.608 8.87887 153.619 8.42989V5.10489H155.355V8.19789C155.336 8.5216 155.444 8.84001 155.655 9.08589C155.758 9.19268 155.883 9.27615 156.021 9.33066C156.159 9.38517 156.307 9.40946 156.455 9.40189C156.604 9.40963 156.753 9.38544 156.893 9.33095C157.032 9.27646 157.158 9.19291 157.262 9.08589C157.473 8.84001 157.581 8.5216 157.562 8.19789V5.10489L159.293 5.10189ZM162.652 5.90889C162.827 5.63872 163.068 5.41746 163.352 5.26589C163.676 5.09653 164.038 5.01224 164.404 5.02089C164.855 5.01555 165.298 5.13943 165.68 5.37789C166.07 5.62743 166.381 5.98114 166.58 6.39889C166.81 6.87976 166.924 7.40797 166.912 7.94089C166.923 8.47536 166.809 9.00506 166.58 9.48789C166.382 9.90858 166.07 10.2656 165.68 10.5189C165.299 10.7604 164.855 10.8862 164.404 10.8809C164.04 10.8882 163.681 10.8039 163.358 10.6359C163.072 10.4879 162.828 10.2702 162.648 10.0029V13.5149H160.91V5.10489H162.656L162.652 5.90889ZM165.143 7.94089C165.154 7.75442 165.127 7.56768 165.065 7.39154C165.003 7.2154 164.906 7.05338 164.781 6.91489C164.666 6.79413 164.528 6.6986 164.374 6.63438C164.22 6.57016 164.055 6.53866 163.888 6.54189C163.723 6.53934 163.558 6.57168 163.406 6.63681C163.254 6.70194 163.117 6.7984 163.005 6.91989C162.88 7.05954 162.784 7.22247 162.721 7.39937C162.659 7.57628 162.633 7.76369 162.643 7.95089C162.633 8.1381 162.659 8.32551 162.721 8.50241C162.784 8.67932 162.88 8.84225 163.005 8.98189C163.117 9.10339 163.254 9.19985 163.406 9.26498C163.558 9.33011 163.723 9.36245 163.888 9.35989C164.055 9.36202 164.22 9.32901 164.373 9.26301C164.526 9.19702 164.663 9.09953 164.776 8.97689C164.903 8.83738 165.001 8.67425 165.064 8.49683C165.128 8.3194 165.156 8.13117 165.147 7.94289L165.143 7.94089ZM170.513 10.8809C170.058 10.8891 169.606 10.8022 169.186 10.6259C168.824 10.4758 168.508 10.2347 168.267 9.92589C168.045 9.63735 167.913 9.2893 167.889 8.92589H169.614C169.623 9.02107 169.652 9.11324 169.7 9.19609C169.747 9.27893 169.812 9.35051 169.89 9.40589C170.064 9.53168 170.275 9.59636 170.49 9.58989C170.67 9.60284 170.849 9.55912 171.002 9.46489C171.057 9.42914 171.103 9.37995 171.134 9.32191C171.166 9.26386 171.182 9.19884 171.181 9.13289C171.181 9.05358 171.157 8.97615 171.111 8.91131C171.065 8.84646 171.001 8.7974 170.926 8.77089C170.658 8.66116 170.382 8.57419 170.099 8.51089C169.752 8.43436 169.411 8.33413 169.078 8.21089C168.807 8.10455 168.567 7.93277 168.378 7.71089C168.168 7.4502 168.061 7.12129 168.078 6.78689C168.076 6.46863 168.17 6.15719 168.349 5.89389C168.549 5.60914 168.827 5.38773 169.149 5.25589C169.545 5.09042 169.971 5.01034 170.4 5.02089C171.009 4.98634 171.61 5.17513 172.09 5.55189C172.504 5.90914 172.759 6.41579 172.8 6.96089H171.18C171.17 6.86929 171.142 6.78062 171.097 6.69996C171.052 6.61931 170.992 6.54826 170.92 6.49089C170.753 6.36831 170.55 6.30686 170.343 6.31689C170.178 6.30639 170.014 6.34727 169.873 6.43389C169.821 6.46952 169.779 6.51771 169.75 6.574C169.722 6.63028 169.708 6.69284 169.71 6.75589C169.71 6.83649 169.736 6.91503 169.782 6.98085C169.829 7.04668 169.894 7.09662 169.97 7.12389C170.232 7.23295 170.504 7.31504 170.782 7.36889C171.132 7.45521 171.476 7.56274 171.813 7.69089C172.085 7.80063 172.325 7.97582 172.513 8.20089C172.725 8.46885 172.835 8.80334 172.824 9.14489C172.828 9.46492 172.73 9.77783 172.543 10.0379C172.337 10.3149 172.057 10.529 171.736 10.6559C171.349 10.8133 170.935 10.8905 170.517 10.8829L170.513 10.8809Z" fill="#FF0F00"/>
</svg>
