<svg width="29" height="29" viewBox="0 0 29 29" fill="none" xmlns="http://www.w3.org/2000/svg">
<path d="M8.4375 15.6328C9.3125 15.25 10.3516 15.4687 10.9531 16.2344L12.8125 18.4766C15.3281 17 17.4062 14.9219 18.8828 12.4062L16.6406 10.5469C15.875 9.94531 15.6562 8.90625 16.0391 8.03125L18.6641 1.90625C19.0469 0.921874 20.0859 0.375 21.125 0.59375L27.25 1.90625C28.2344 2.125 29 3.05469 29 4.03906C29 17 18.9375 27.6094 6.25 28.4844C5.97656 28.5391 5.70312 28.5391 5.48437 28.5391C5.15625 28.5391 4.82812 28.5938 4.44531 28.5938C3.46093 28.5938 2.53125 27.8281 2.3125 26.8438L0.999996 20.7188C0.781246 19.6797 1.32812 18.6406 2.3125 18.2578L8.4375 15.6328ZM4.5 26.7891C17.0234 26.7891 27.25 16.6172 27.25 4.03906C27.25 3.875 27.0859 3.65625 26.8672 3.65625L20.7422 2.34375C20.5781 2.28906 20.3594 2.39844 20.25 2.5625L17.625 8.6875C17.5703 8.90625 17.625 9.07031 17.7891 9.23438L19.9766 11.0391C20.6328 11.5859 20.7969 12.5156 20.4141 13.2812C18.7734 16.0703 16.4766 18.3672 13.6875 19.9531C12.9219 20.3906 11.9922 20.2266 11.4453 19.5703L9.64062 17.3281C9.53125 17.2187 9.3125 17.1641 9.14843 17.2188L3.02343 19.8438C2.80468 19.9531 2.69531 20.1172 2.75 20.3359L4.0625 26.4609C4.11718 26.6797 4.28125 26.7891 4.5 26.7891Z" fill="white"/>
</svg>
