<svg width="86" height="21" viewBox="0 0 86 21" fill="none" xmlns="http://www.w3.org/2000/svg">
<path d="M23.1319 7.33919H31.7179V8.92919H28.3419V17.8852H26.4819V8.92919H23.1189V7.33919H23.1319ZM31.3539 10.2502H32.9439V11.7262H32.9689C33.025 11.509 33.1236 11.3051 33.2589 11.1262C33.407 10.9241 33.5816 10.7428 33.7779 10.5872C33.9835 10.4241 34.2102 10.2895 34.4519 10.1872C34.6924 10.0922 34.9483 10.042 35.2069 10.0392C35.4069 10.0392 35.5439 10.0462 35.6179 10.0522C35.6919 10.0582 35.7659 10.0722 35.8469 10.0792V11.7032C35.7259 11.6832 35.6039 11.6632 35.4829 11.6492C35.362 11.6362 35.2405 11.6295 35.1189 11.6292C34.8407 11.6302 34.5655 11.6874 34.3099 11.7972C34.0545 11.9111 33.8287 12.0822 33.6499 12.2972C33.4492 12.5406 33.2959 12.8194 33.1979 13.1192C33.0814 13.4825 33.0266 13.8628 33.0359 14.2442V17.8792H31.3479V10.2502H31.3539ZM43.6329 17.8862H41.9689V16.8212H41.9419C41.7273 17.212 41.4044 17.5326 41.0119 17.7442C40.6292 17.9678 40.1951 18.0884 39.7519 18.0942C39.3537 18.1328 38.9518 18.0867 38.5726 17.959C38.1935 17.8313 37.8456 17.6248 37.5519 17.3532C37.0549 16.7102 36.8147 15.9054 36.8779 15.0952V10.2502H38.5689V14.9342C38.5184 15.4403 38.6578 15.9471 38.9599 16.3562C39.1007 16.499 39.2703 16.6101 39.4573 16.6821C39.6444 16.7542 39.8447 16.7856 40.0449 16.7742C40.3497 16.7842 40.6531 16.7289 40.9349 16.6122C41.1594 16.5129 41.3579 16.363 41.5149 16.1742C41.6673 15.9813 41.7774 15.7585 41.8379 15.5202C41.9055 15.2492 41.9371 14.9705 41.9319 14.6912V10.2572H43.6239C43.6329 10.2572 43.6329 17.8862 43.6329 17.8862ZM46.5169 15.4402C46.5231 15.6447 46.5768 15.845 46.6739 16.0252C46.7709 16.2053 46.9085 16.3604 47.0759 16.4782C47.4324 16.6829 47.8379 16.7866 48.2489 16.7782C48.4292 16.7766 48.6093 16.7632 48.7879 16.7382C48.9822 16.7173 49.1727 16.6695 49.3539 16.5962C49.5249 16.5348 49.6778 16.4317 49.7989 16.2962C49.9157 16.1497 49.9712 15.9637 49.9539 15.7772C49.9544 15.6771 49.9328 15.5781 49.8908 15.4872C49.8489 15.3963 49.7874 15.3157 49.7109 15.2512C49.5449 15.1046 49.3529 14.9903 49.1449 14.9142C48.8837 14.8232 48.6164 14.751 48.3449 14.6982C48.0449 14.6372 47.7449 14.5702 47.4449 14.4982C47.1344 14.4312 46.8282 14.3457 46.5279 14.2422C46.2458 14.1512 45.9798 14.0162 45.7399 13.8422C45.5063 13.677 45.3165 13.4573 45.1869 13.2022C45.0372 12.9014 44.9653 12.5679 44.9779 12.2322C44.9669 11.8597 45.0756 11.4935 45.2879 11.1872C45.4918 10.9075 45.7538 10.6752 46.0559 10.5062C46.3819 10.334 46.7318 10.2113 47.0939 10.1422C47.4543 10.0773 47.8197 10.0439 48.1859 10.0422C48.5691 10.0425 48.9511 10.0855 49.3249 10.1702C49.6751 10.2465 50.0085 10.3858 50.3089 10.5812C50.5994 10.7707 50.8474 11.0186 51.0369 11.3092C51.2426 11.6368 51.3674 12.0088 51.4009 12.3942H49.6379C49.6203 12.224 49.5604 12.0609 49.4639 11.9196C49.3673 11.7784 49.2371 11.6634 49.0849 11.5852C48.7718 11.4403 48.4298 11.3689 48.0849 11.3762C47.9428 11.3763 47.8009 11.3853 47.6599 11.4032C47.5011 11.424 47.3451 11.4625 47.1949 11.5182C47.0582 11.5701 46.9341 11.6506 46.8309 11.7542C46.7297 11.8666 46.6766 12.0141 46.6829 12.1652C46.6797 12.2593 46.6974 12.353 46.7348 12.4394C46.7721 12.5259 46.8282 12.603 46.8989 12.6652C47.0656 12.8038 47.2546 12.913 47.4579 12.9882C47.7191 13.0792 47.9864 13.1514 48.2579 13.2042C48.5579 13.2652 48.8649 13.3322 49.1809 13.4042C49.4856 13.4722 49.7861 13.5577 50.0809 13.6602C50.3669 13.7506 50.6369 13.8856 50.8809 14.0602C51.1315 14.2374 51.3338 14.4745 51.4692 14.75C51.6046 15.0255 51.6688 15.3305 51.6559 15.6372C51.6671 16.0442 51.5567 16.4452 51.3389 16.7892C51.13 17.1024 50.8535 17.3648 50.5299 17.5572C50.1871 17.7593 49.814 17.9048 49.4249 17.9882C49.0288 18.0759 48.6246 18.1212 48.2189 18.1232C47.7645 18.127 47.3115 18.0726 46.8709 17.9612C46.4866 17.8637 46.1234 17.6969 45.7989 17.4692C45.5024 17.2492 45.2585 16.966 45.0849 16.6402C44.903 16.2738 44.8086 15.8702 44.8089 15.4612H46.5139V15.4482L46.5169 15.4402ZM52.1039 10.2512H53.3839V7.95919H55.0759V10.2502H56.6059V11.5102H55.0759V15.5872C55.0746 15.7401 55.0813 15.893 55.0959 16.0452C55.1082 16.1616 55.145 16.274 55.2039 16.3752C55.2631 16.467 55.3504 16.5372 55.4529 16.5752C55.5978 16.6268 55.7513 16.6495 55.9049 16.6422C56.0259 16.6422 56.1479 16.6422 56.2619 16.6352C56.3825 16.6304 56.5023 16.6123 56.6189 16.5812V17.8812C56.4299 17.9012 56.2419 17.9212 56.0729 17.9422C55.8915 17.9614 55.7093 17.9705 55.5269 17.9692C55.1633 17.978 54.8003 17.9349 54.4489 17.8412C54.2085 17.7765 53.9898 17.6484 53.8159 17.4702C53.6569 17.2981 53.5474 17.0864 53.4989 16.8572C53.4402 16.5803 53.4087 16.2983 53.4049 16.0152V11.5152H52.1249V10.2442C52.1188 10.2485 52.1114 10.2506 52.1039 10.2502V10.2512ZM57.7989 10.2512H59.3989V11.2892H59.4259C59.6404 10.8672 59.9934 10.5317 60.4259 10.3392C60.8617 10.1419 61.3356 10.0429 61.8139 10.0492C62.3576 10.0324 62.8976 10.143 63.3909 10.3722C63.8277 10.5716 64.2127 10.8689 64.5159 11.2412C64.8195 11.6255 65.046 12.0649 65.1829 12.5352C65.4723 13.5358 65.4792 14.5969 65.2029 15.6012C65.0794 16.061 64.8738 16.4946 64.5959 16.8812C64.3265 17.2523 63.9751 17.5562 63.5689 17.7692C63.1126 18.0026 62.6053 18.1185 62.0929 18.1062C61.8443 18.1073 61.5962 18.0848 61.3519 18.0392C61.1071 17.9918 60.8679 17.9194 60.6379 17.8232C60.4113 17.7294 60.2 17.6024 60.0109 17.4462C59.8218 17.2933 59.6581 17.1114 59.5259 16.9072H59.4989V20.7212H57.8049C57.7989 20.7102 57.7989 10.2502 57.7989 10.2502V10.2512ZM63.7159 14.0792C63.7151 13.7414 63.6697 13.4051 63.5809 13.0792C63.5016 12.7694 63.366 12.4769 63.1809 12.2162C63.0044 11.9705 62.7769 11.7658 62.5139 11.6162C62.2307 11.4626 61.913 11.3838 61.5909 11.3872C61.2825 11.3663 60.9736 11.4225 60.6924 11.5508C60.4111 11.6791 60.1662 11.8755 59.9799 12.1222C59.5952 12.7041 59.4064 13.3935 59.4409 14.0902C59.438 14.4524 59.4858 14.8132 59.5829 15.1622C59.6636 15.4718 59.8084 15.761 60.0079 16.0112C60.1901 16.2435 60.4199 16.4341 60.6819 16.5702C60.9652 16.7156 61.2805 16.7875 61.5989 16.7792C61.942 16.7893 62.2817 16.7078 62.5829 16.5432C62.8455 16.3902 63.0709 16.1808 63.2429 15.9302C63.4183 15.6694 63.5459 15.3796 63.6199 15.0742C63.6859 14.7463 63.718 14.4136 63.7159 14.0792ZM66.7009 7.34019H68.3929V8.93019H66.7009V7.34019ZM66.7009 10.2512H68.3929V17.8872H66.7009V10.2512ZM69.9089 7.33919H71.6009V17.8862H69.9089V7.33919ZM76.7899 18.0952C76.2293 18.1062 75.6722 18.0042 75.1519 17.7952C74.6923 17.603 74.2771 17.3184 73.9319 16.9592C73.5935 16.5923 73.3363 16.1582 73.1769 15.6852C72.997 15.1629 72.908 14.6136 72.9139 14.0612C72.9085 13.5131 72.9975 12.9681 73.1769 12.4502C73.3389 11.9784 73.5959 11.5449 73.9319 11.1762C74.274 10.8134 74.6901 10.5283 75.1519 10.3402C76.2061 9.93588 77.3727 9.93588 78.4269 10.3402C78.8865 10.5324 79.3017 10.817 79.6469 11.1762C79.9853 11.5431 80.2425 11.9772 80.4019 12.4502C80.5819 12.968 80.6708 13.513 80.6649 14.0612C80.6707 14.6136 80.5818 15.1629 80.4019 15.6852C80.2399 16.157 79.9829 16.5905 79.6469 16.9592C79.3048 17.322 78.8887 17.6071 78.4269 17.7952C77.9069 18.0041 77.3502 18.1061 76.7899 18.0952ZM76.7899 16.7672C77.1171 16.7766 77.4414 16.703 77.7325 16.5533C78.0236 16.4037 78.2721 16.1828 78.4549 15.9112C78.6377 15.6492 78.7731 15.3571 78.8549 15.0482C79.0256 14.4057 79.0256 13.7297 78.8549 13.0872C78.7801 12.7759 78.6441 12.4825 78.4549 12.2242C78.2752 11.9728 78.0428 11.7636 77.7739 11.6112C77.473 11.4458 77.1331 11.3643 76.7899 11.3752C76.4471 11.3682 76.1082 11.4495 75.8059 11.6112C75.5357 11.7617 75.3029 11.9713 75.1249 12.2242C74.9408 12.4855 74.8053 12.7778 74.7249 13.0872C74.5542 13.7297 74.5542 14.4057 74.7249 15.0482C74.8011 15.3591 74.9369 15.6522 75.1249 15.9112C75.3043 16.1647 75.5367 16.3763 75.8059 16.5312C76.1069 16.6965 76.4466 16.7786 76.7899 16.7692V16.7672ZM81.1639 10.2502H82.4439V7.95919H84.1359V10.2502H85.6689V11.5102H84.1389V15.5872C84.1376 15.7401 84.1443 15.893 84.1589 16.0452C84.1712 16.1616 84.208 16.274 84.2669 16.3752C84.3241 16.4688 84.4122 16.5395 84.5159 16.5752C84.6608 16.6268 84.8143 16.6495 84.9679 16.6422C85.0889 16.6422 85.2109 16.6422 85.3249 16.6352C85.4455 16.6304 85.5653 16.6123 85.6819 16.5812V17.8812C85.4929 17.9012 85.3049 17.9212 85.1359 17.9422C84.9546 17.9614 84.7723 17.9705 84.5899 17.9692C84.2263 17.978 83.8633 17.9349 83.5119 17.8412C83.2715 17.7765 83.0528 17.6484 82.8789 17.4702C82.7199 17.2981 82.6104 17.0864 82.5619 16.8572C82.5032 16.5803 82.4717 16.2983 82.4679 16.0152V11.5152H81.1879V10.2442C81.1843 10.2468 81.1803 10.2487 81.176 10.2497C81.1717 10.2508 81.1683 10.2509 81.1639 10.2502Z" fill="white"/>
<path d="M21.1579 7.33906H13.4009L11.0089 5.53131e-05L8.60295 7.33906L0.845947 7.33206L7.12695 11.8741L4.72695 19.2061L11.0079 14.6701L17.2819 19.2061L14.8819 11.8741L21.1579 7.33906Z" fill="#00B67A"/>
</svg>
