<svg width="28" height="27" viewBox="0 0 28 27" fill="none" xmlns="http://www.w3.org/2000/svg">
<path d="M23.1406 4.53125C25.6016 6.99219 27.125 10.2148 27.125 13.7305C27.125 20.8789 21.1484 26.7383 13.9414 26.7383C11.7734 26.7383 9.66406 26.1523 7.73047 25.1563L0.875 26.9141L2.69141 20.1758C1.57812 18.2422 0.933594 16.0156 0.933594 13.6719C0.933594 6.52344 6.79297 0.664062 13.9414 0.664062C17.457 0.664062 20.7383 2.07031 23.1406 4.53125ZM13.9414 24.5117C19.918 24.5117 24.8984 19.6484 24.8984 13.7305C24.8984 10.8008 23.668 8.10547 21.6172 6.05469C19.5664 4.00391 16.8711 2.89062 14 2.89062C8.02344 2.89062 3.16016 7.75391 3.16016 13.6719C3.16016 15.7227 3.74609 17.7148 4.80078 19.4727L5.09375 19.8828L3.98047 23.8672L8.08203 22.7539L8.43359 22.9883C10.1328 23.9844 12.0078 24.5117 13.9414 24.5117ZM19.918 16.4258C20.2109 16.6016 20.4453 16.6602 20.5039 16.8359C20.6211 16.9531 20.6211 17.5977 20.3281 18.3594C20.0352 19.1211 18.7461 19.8242 18.1602 19.8828C17.1055 20.0586 16.2852 20 14.2344 19.0625C10.9531 17.6563 8.84375 14.375 8.66797 14.1992C8.49219 13.9648 7.37891 12.4414 7.37891 10.8008C7.37891 9.21875 8.19922 8.45703 8.49219 8.10547C8.78516 7.75391 9.13672 7.69531 9.37109 7.69531C9.54687 7.69531 9.78125 7.69531 9.95703 7.69531C10.1914 7.69531 10.4258 7.63672 10.7188 8.28125C10.9531 8.92578 11.6562 10.5078 11.7148 10.6836C11.7734 10.8594 11.832 11.0352 11.7148 11.2695C11.1289 12.5 10.4258 12.4414 10.7773 13.0273C12.0664 15.1953 13.2969 15.957 15.2305 16.8945C15.5234 17.0703 15.6992 17.0117 15.9336 16.8359C16.1094 16.6016 16.7539 15.8398 16.9297 15.5469C17.1641 15.1953 17.3984 15.2539 17.6914 15.3711C17.9844 15.4883 19.5664 16.25 19.918 16.4258Z" fill="white"/>
</svg>
